# Blender v2.83.12 OBJ File: 'Спальный мешок.blend'
# www.blender.org
mtllib Спальный мешок.mtl
o Cube
v 0.930429 0.186086 -2.000000
v 1.000000 -0.200000 -2.000000
v 1.000000 0.226692 2.000000
v 1.000000 -0.200000 2.000000
v -0.930429 0.186086 -2.000000
v -1.000000 -0.200000 -2.000000
v -1.000000 0.226692 2.000000
v -1.000000 -0.200000 2.000000
v 0.675205 0.083036 -2.255224
v -1.000000 0.000000 2.000000
v 1.000000 0.000000 2.000000
v -0.675205 0.083036 -2.255224
v 1.000000 -0.200000 -3.000000
v -1.000000 -0.200000 -3.000000
v 0.675205 0.083036 -2.675205
v -0.675205 0.083036 -2.675205
v -1.000000 0.226692 -2.000000
v 1.000000 0.226692 -2.000000
v 1.000000 0.000000 -2.000000
v -1.000000 0.000000 -2.000000
v -1.000000 0.000000 -3.000000
v 1.000000 0.000000 -3.000000
v -0.627201 -0.248979 -2.000000
v -0.627201 -0.248979 2.000000
v 0.627201 -0.248979 -2.000000
v 0.627201 0.275671 2.000000
v -0.627201 0.275671 2.000000
v 0.627201 0.275671 -2.000000
v 0.627201 -0.248979 2.000000
v -0.627201 0.275671 -2.000000
v -0.930429 0.000000 -2.000000
v 0.930429 0.000000 -2.000000
v -0.930429 0.000000 -2.930429
v 0.930429 0.000000 -2.930429
v -0.748266 0.000000 -2.182163
v 0.748266 0.000000 -2.182163
v -0.748266 0.000000 -2.748266
v 0.748266 0.000000 -2.748266
vt 0.375000 0.000000
vt 0.375000 0.250000
vt 0.375000 0.250000
vt 0.375000 0.000000
vt 0.500000 0.750000
vt 0.625000 0.750000
vt 0.625000 1.000000
vt 0.500000 1.000000
vt 0.500000 0.000000
vt 0.625000 0.000000
vt 0.625000 0.250000
vt 0.500000 0.250000
vt 0.375000 0.500000
vt 0.375000 0.750000
vt 0.375000 0.750000
vt 0.375000 0.500000
vt 0.500000 0.500000
vt 0.625000 0.500000
vt 0.125000 0.500000
vt 0.125000 0.500000
vt 0.375000 0.500000
vt 0.375000 1.000000
vt 0.375000 0.250000
vt 0.500000 0.250000
vt 0.500000 0.500000
vt 0.616304 0.491304
vt 0.616304 0.258696
vt 0.500000 0.491304
vt 0.500000 0.258696
vt 0.500000 0.258696
vt 0.500000 0.491304
vt 0.625000 0.500000
vt 0.875000 0.500000
vt 0.875000 0.750000
vt 0.625000 0.750000
vt 0.125000 0.500000
vt 0.125000 0.750000
vt 0.625000 0.000000
vt 0.625000 0.250000
vt 0.375000 1.000000
vt 0.625000 1.000000
vt 0.500000 0.290599
vt 0.500000 0.459401
vt 0.500000 0.459401
vt 0.500000 0.290599
vt 0.500000 0.468533
vt 0.500000 0.281467
vt 0.500000 0.281467
vt 0.500000 0.468533
vn -0.1303 -0.9915 0.0000
vn 0.0000 0.0000 1.0000
vn -1.0000 0.0000 0.0000
vn 0.1303 -0.9915 0.0000
vn 1.0000 0.0000 0.0000
vn 0.0000 -1.0000 0.0000
vn 0.0000 0.0000 -1.0000
vn 0.0000 1.0000 0.0000
vn -0.1303 0.9915 0.0000
vn 0.1303 0.9915 0.0000
vn 0.0000 0.6606 0.7508
vn 0.0000 0.6606 -0.7508
vn 0.7508 0.6606 0.0000
vn -0.7508 0.6606 0.0000
usemtl Постель_БМ2
s off
f 8/1/1 6/2/1 23/3/1 24/4/1
f 11/5/2 3/6/2 7/7/2 10/8/2
f 10/9/3 7/10/3 17/11/3 20/12/3
f 2/13/4 4/14/4 29/15/4 25/16/4
f 19/17/5 18/18/5 3/6/5 11/5/5
f 2/13/6 6/19/6 14/20/6 13/21/6
f 2/13/5 19/17/5 11/5/5 4/14/5
f 8/1/3 10/9/3 20/12/3 6/2/3
f 4/14/2 11/5/2 10/8/2 8/22/2
f 14/23/7 21/24/7 22/25/7 13/21/7
f 19/17/5 2/13/5 13/21/5 22/25/5
f 6/2/3 20/12/3 21/24/3 14/23/3
f 1/26/7 5/27/7 17/11/7 18/18/7
f 32/28/7 1/26/7 18/18/7 19/17/7
f 5/27/7 31/29/7 20/12/7 17/11/7
f 33/30/8 34/31/8 22/25/8 21/24/8
f 34/31/8 32/28/8 19/17/8 22/25/8
f 31/29/8 33/30/8 21/24/8 20/12/8
f 28/32/8 30/33/8 27/34/8 26/35/8
f 23/36/6 25/16/6 29/15/6 24/37/6
f 17/11/9 7/10/9 27/38/9 30/39/9
f 3/6/10 18/18/10 28/32/10 26/35/10
f 6/19/7 2/13/7 25/16/7 23/36/7
f 18/18/7 17/11/7 30/39/7 28/32/7
f 4/14/2 8/22/2 24/40/2 29/15/2
f 7/7/2 3/6/2 26/35/2 27/41/2
usemtl Постель_БМ3
f 31/29/7 5/27/7 1/26/7 32/28/7
f 12/42/8 9/43/8 15/44/8 16/45/8
f 36/46/8 35/47/8 31/29/8 32/28/8
f 37/48/8 38/49/8 34/31/8 33/30/8
f 38/49/8 36/46/8 32/28/8 34/31/8
f 35/47/8 37/48/8 33/30/8 31/29/8
f 9/43/11 12/42/11 35/47/11 36/46/11
f 16/45/12 15/44/12 38/49/12 37/48/12
f 15/44/13 9/43/13 36/46/13 38/49/13
f 12/42/14 16/45/14 37/48/14 35/47/14
