# Blender v2.83.12 OBJ File: 'Стол 2.blend'
# www.blender.org
mtllib Стол 2.mtl
o Cube
v 3.200000 2.780465 -3.000000
v 2.953199 2.154285 -2.768624
v 3.200000 2.780465 3.000000
v 2.953199 2.154285 2.768624
v -3.200000 2.780465 -3.000000
v -2.953199 2.154285 -2.768624
v -3.200000 2.780465 3.000000
v -2.953199 2.154285 2.768624
v 2.240000 2.580465 -3.510000
v -2.240000 2.580465 -3.510000
v 2.240000 2.780465 -3.510000
v -2.240000 2.580465 3.510000
v -2.240000 2.780465 3.510000
v 2.240000 2.780465 3.510000
v 2.240000 2.580465 3.510000
v -2.240000 2.780465 -3.510000
v -3.146086 2.245542 -2.949456
v -3.146086 2.245542 2.949456
v 3.146086 2.245542 -2.949456
v 3.146086 2.245542 2.949456
v 2.904011 2.245542 -2.949456
v 2.666255 2.780465 2.889371
v 2.904011 2.245542 2.949456
v 2.666255 2.780465 -2.889371
v 2.016000 2.580465 -3.510000
v 1.903498 2.780465 3.144537
v 2.016000 2.580465 3.510000
v 1.903498 2.780465 -3.144537
v 2.657880 2.580465 -2.768624
v 2.657880 2.580465 2.768624
v -2.919922 2.245542 -2.949456
v -2.682255 2.780465 2.889045
v -2.027200 2.580465 -3.510000
v -1.915224 2.780465 3.144537
v -2.672646 2.580465 -2.768624
v -2.919922 2.245542 2.949456
v -2.896000 2.780465 -3.000000
v -2.027200 2.580465 3.510000
v -1.915224 2.780465 -3.144537
v -2.726559 2.154285 2.749149
v -3.146086 2.245542 -2.722511
v 3.200000 2.780465 -2.700000
v -3.200000 2.780465 -2.700000
v 3.146086 2.245542 -2.722511
v -2.953199 2.580465 -2.491762
v 2.953199 2.580465 -2.491762
v 2.711793 2.154285 -2.542306
v 2.666255 2.780465 -2.700000
v -2.726559 2.154285 -2.542306
v -2.682255 2.780465 -2.700000
v -3.146086 2.245542 2.737427
v 3.200000 2.780465 2.715000
v -2.953199 2.580465 2.505605
v 2.711793 2.154285 2.556149
v 2.666255 2.780465 2.715000
v -2.726559 2.154285 2.556149
v -2.682255 2.780465 2.715000
v -3.200000 2.780465 2.715000
v 3.146086 2.245542 2.737427
v 2.932425 2.154285 2.556149
v -3.200000 2.580465 2.715000
v -3.200000 2.580465 3.000000
v -2.896000 2.580465 -3.000000
v -3.200000 2.580465 -3.000000
v 2.880000 2.580465 3.000000
v 3.200000 2.580465 3.000000
v 3.200000 2.580465 -2.700000
v 3.200000 2.580465 -3.000000
v 2.880000 2.580465 -3.000000
v 2.711793 2.154285 2.749229
v 2.711793 2.154285 -2.749229
v 2.657880 2.580465 2.505605
v -2.896000 2.580465 3.000000
v -2.672646 2.580465 2.505605
v -2.672646 2.580465 2.768624
v -2.726559 2.154285 -2.749149
v -3.200000 2.580465 -2.700000
v 2.657880 2.580465 -2.491762
v -2.672646 2.580465 -2.491762
v -2.932511 2.154285 -2.542306
v 2.932511 2.154285 -2.542306
v 3.200000 2.580465 2.715000
v 2.953199 2.580465 2.505605
v -2.932425 2.154285 2.556149
v -2.932425 0.112953 2.753416
v -2.953199 0.112953 2.982311
v -2.726559 0.112953 -2.961865
v -2.953199 0.112953 -2.982846
v 2.711793 0.112953 2.961417
v 2.953199 0.112953 2.982311
v 2.932511 0.112953 -2.739038
v 2.953199 0.112953 -2.982846
v 2.711793 0.112953 -2.961952
v -2.726559 0.112953 2.961331
v -2.932511 0.112953 -2.739038
v 2.932425 0.112953 2.753416
v 2.711793 0.112953 2.753416
v -2.726559 0.112953 2.753416
v 2.711793 0.112953 -2.739038
v -2.726559 0.112953 -2.739038
v -2.932425 -0.170702 2.753416
v -2.953199 -0.170702 2.982311
v -2.726559 -0.170702 -2.961865
v -2.953199 -0.170702 -2.982846
v 2.711793 -0.170702 2.961417
v 2.953199 -0.170702 2.982311
v 2.932511 -0.170702 -2.739038
v 2.953199 -0.170702 -2.982846
v 2.711793 -0.170702 -2.961952
v -2.726559 -0.170702 2.961331
v -2.932511 -0.170702 -2.739038
v 2.932425 -0.170702 2.753416
v 2.711793 -0.170702 2.753416
v -2.726559 -0.170702 2.753416
v 2.711793 -0.170702 -2.739038
v -2.726559 -0.170702 -2.739038
v -0.007383 0.112953 2.753416
v -0.007383 0.112953 2.961374
v -0.007383 0.112953 -2.961909
v -0.007383 0.112953 -2.739038
v -0.007383 -0.170702 2.753416
v -0.007383 -0.170702 2.961374
v -0.007383 -0.170702 -2.961909
v -0.007383 -0.170702 -2.739038
v -2.027200 2.780465 -3.510000
v 2.016000 2.780465 -3.510000
v 2.880000 2.780465 -3.000000
v 2.880000 2.780465 3.000000
v 2.016000 2.780465 3.510000
v 2.880000 2.780465 2.715000
v -2.027200 2.780465 3.510000
v -2.682255 2.780465 -2.889045
v -2.896000 2.780465 3.000000
v -2.896000 2.780465 2.715000
v 2.880000 2.780465 -2.700000
v -2.896000 2.780465 -2.700000
v -1.965803 2.780465 -3.309614
v 1.954314 2.780465 -3.309614
v 2.490172 2.780465 -2.798236
v 2.490172 2.780465 2.798236
v 1.954314 2.780465 3.309614
v 2.490172 2.780465 2.715000
v -1.965803 2.780465 3.309614
v -2.506172 2.780465 -2.797640
v -2.506172 2.780465 2.797640
v -2.506172 2.780465 2.715000
v 2.490172 2.780465 -2.700000
v -2.506172 2.780465 -2.700000
vt 0.863125 0.738125
vt 0.875000 0.738125
vt 0.875000 0.750000
vt 0.863125 0.750000
vt 0.875000 0.750000
vt 0.863125 0.750000
vt 0.375000 0.237500
vt 0.625000 0.237500
vt 0.625000 0.250000
vt 0.375000 0.250000
vt 0.375000 0.738125
vt 0.625000 0.738125
vt 0.625000 0.750000
vt 0.375000 0.750000
vt 0.362500 0.750000
vt 0.375000 0.750000
vt 0.362500 0.750000
vt 0.375000 0.988125
vt 0.625000 0.988125
vt 0.625000 1.000000
vt 0.375000 1.000000
vt 0.375000 0.487500
vt 0.625000 0.487500
vt 0.625000 0.500000
vt 0.375000 0.500000
vt 0.625000 0.750000
vt 0.625000 0.500000
vt 0.375000 0.500000
vt 0.625000 0.250000
vt 0.375000 0.250000
vt 0.625000 0.000000
vt 0.375000 0.000000
vt 0.375000 0.000000
vt 0.625000 0.000000
vt 0.136875 0.500000
vt 0.125000 0.500000
vt 0.125000 0.500000
vt 0.136875 0.500000
vt 0.637500 0.500000
vt 0.637500 0.500000
vt 0.145600 0.740359
vt 0.353823 0.740359
vt 0.136875 0.750000
vt 0.847897 0.508432
vt 0.652728 0.508407
vt 0.664581 0.501811
vt 0.835952 0.501814
vt 0.362500 0.500000
vt 0.362500 0.500000
vt 0.375000 0.261875
vt 0.625000 0.261875
vt 0.625000 0.762500
vt 0.375000 0.762500
vt 0.136875 0.750000
vt 0.145600 0.729400
vt 0.353823 0.729400
vt 0.637500 0.750000
vt 0.637500 0.750000
vt 0.637500 0.738125
vt 0.125000 0.750000
vt 0.125000 0.750000
vt 0.875000 0.500000
vt 0.863125 0.500000
vt 0.863125 0.500000
vt 0.875000 0.500000
vt 0.353823 0.509641
vt 0.145600 0.509641
vt 0.652728 0.741593
vt 0.847897 0.741568
vt 0.835952 0.748186
vt 0.664581 0.748189
vt 0.652728 0.738125
vt 0.847897 0.738125
vt 0.847897 0.512500
vt 0.652728 0.512500
vt 0.637500 0.512500
vt 0.625000 0.512500
vt 0.353823 0.521177
vt 0.145600 0.521177
vt 0.365359 0.729400
vt 0.365359 0.521177
vt 0.375000 0.512500
vt 0.375000 0.011875
vt 0.625000 0.011875
vt 0.875000 0.512500
vt 0.863125 0.512500
vt 0.134641 0.521177
vt 0.134641 0.729400
vt 0.125000 0.738125
vt 0.125000 0.512500
vt 0.127106 0.739059
vt 0.127106 0.747894
vt 0.135941 0.502106
vt 0.127106 0.502106
vt 0.363438 0.747894
vt 0.372894 0.747894
vt 0.372894 0.511562
vt 0.372894 0.502106
vt 0.363438 0.502106
vt 0.355929 0.739551
vt 0.355929 0.510449
vt 0.355929 0.731506
vt 0.135941 0.747894
vt 0.143494 0.739548
vt 0.143494 0.731506
vt 0.143494 0.510452
vt 0.127106 0.511562
vt 0.355929 0.519071
vt 0.143494 0.519071
vt 0.135449 0.519071
vt 0.364551 0.519071
vt 0.372894 0.739059
vt 0.364548 0.731506
vt 0.135452 0.731506
vt 0.846131 0.500000
vt 0.654433 0.500000
vt 0.645849 0.504610
vt 0.645849 0.745390
vt 0.654433 0.750000
vt 0.645849 0.738125
vt 0.846131 0.750000
vt 0.854776 0.504623
vt 0.854776 0.745377
vt 0.854776 0.738125
vt 0.645849 0.512500
vt 0.854776 0.512500
vt 0.134641 0.740359
vt 0.134641 0.740359
vt 0.143494 0.739548
vt 0.134641 0.509641
vt 0.365359 0.740359
vt 0.365359 0.509641
vt 0.135452 0.731506
vt 0.364548 0.731506
vt 0.355929 0.731506
vt 0.135449 0.519071
vt 0.143494 0.519071
vt 0.364551 0.519071
vt 0.355929 0.519071
vt 0.355929 0.519071
vt 0.364551 0.519071
vt 0.134641 0.740359
vt 0.143494 0.739548
vt 0.135449 0.519071
vt 0.143494 0.519071
vt 0.355929 0.510449
vt 0.365359 0.509641
vt 0.365359 0.509641
vt 0.355929 0.510449
vt 0.134641 0.509641
vt 0.143494 0.731506
vt 0.143494 0.510452
vt 0.355929 0.739551
vt 0.365359 0.740359
vt 0.355929 0.731506
vt 0.364548 0.731506
vt 0.365359 0.740359
vt 0.355929 0.739551
vt 0.135452 0.731506
vt 0.143494 0.731506
vt 0.134641 0.509641
vt 0.143494 0.510452
vt 0.143494 0.731506
vt 0.143494 0.731506
vt 0.355929 0.519071
vt 0.355929 0.510449
vt 0.355929 0.510449
vt 0.143494 0.739548
vt 0.143494 0.510452
vt 0.143494 0.519071
vt 0.143494 0.519071
vt 0.355929 0.731506
vt 0.355929 0.739551
vt 0.143494 0.739548
vt 0.355929 0.731506
vt 0.355929 0.519071
vt 0.355929 0.739551
vt 0.143494 0.510452
vn 0.0000 1.0000 0.0000
vn -1.0000 0.0000 0.0000
vn 1.0000 0.0000 0.0000
vn 0.0000 -1.0000 0.0000
vn 0.0000 0.0000 1.0000
vn 0.0000 0.0000 -1.0000
vn 0.4692 0.0000 0.8831
vn 0.4692 0.0000 -0.8831
vn -0.4692 0.0000 -0.8831
vn -0.4692 0.0000 0.8831
vn -0.9873 -0.1589 0.0000
vn 0.0000 -0.1492 -0.9888
vn 0.0000 -0.1492 0.9888
vn 0.9873 -0.1589 0.0000
vn -0.7001 -0.1361 0.7009
vn -0.7001 -0.1361 -0.7009
vn -0.9921 -0.1255 0.0000
vn 0.9921 -0.1255 0.0000
vn 0.6982 -0.1361 0.7028
vn 0.6982 -0.1361 -0.7028
vn 0.0000 -0.1178 0.9930
vn 0.6545 -0.1355 0.7438
vn -0.6545 -0.1355 0.7438
vn 0.6565 -0.1356 -0.7421
vn 0.0000 -0.1178 -0.9930
vn -0.6565 -0.1356 -0.7421
vn 0.0884 0.1033 0.9907
vn -0.4248 -0.9050 -0.0208
vn 0.0193 -0.8940 -0.4476
vn -0.0179 -0.8946 0.4466
vn 0.4238 -0.9055 0.0193
vn -0.0179 -0.8946 -0.4466
vn -0.9956 -0.0094 -0.0937
vn 0.0193 -0.8940 0.4476
vn 0.0000 -0.0962 -0.9954
vn -0.4238 -0.9055 0.0193
vn 0.0000 -0.0959 0.9954
vn 0.4248 -0.9050 -0.0208
vn 0.0922 0.0000 0.9957
vn -0.0862 0.0000 -0.9963
vn -0.9961 -0.0088 0.0877
vn 0.0884 0.1036 -0.9907
vn -0.0827 0.1037 -0.9912
vn -0.0827 0.1034 0.9912
vn 0.9961 -0.0088 0.0877
vn 0.9956 -0.0094 -0.0937
vn -0.9964 0.0000 0.0846
vn 0.9959 0.0000 -0.0904
vn -0.9959 0.0000 -0.0904
vn 0.0922 0.0000 -0.9957
vn -0.0862 0.0000 0.9963
vn 0.9964 0.0000 0.0846
usemtl Полевая_мебель_БМ_1
s off
f 134/1/1 58/2/1 7/3/1 133/4/1
f 133/4/1 7/3/1 13/5/1 131/6/1
f 77/7/2 43/8/2 5/9/2 64/10/2
f 82/11/3 52/12/3 3/13/3 66/14/3
f 65/15/4 66/14/4 15/16/4 27/17/4
f 38/18/5 131/19/5 13/20/5 12/21/5
f 25/22/6 126/23/6 11/24/6 9/25/6
f 66/14/7 3/13/7 14/26/7 15/16/7
f 1/27/8 68/28/8 9/25/8 11/24/8
f 64/10/9 5/9/9 16/29/9 10/30/9
f 7/31/10 62/32/10 12/33/10 13/34/10
f 63/35/4 64/36/4 10/37/4 33/38/4
f 127/39/1 1/27/1 11/24/1 126/40/1
f 75/41/4 30/42/4 65/15/4 73/43/4
f 144/44/1 139/45/1 28/46/1 39/47/1
f 68/28/4 69/48/4 25/49/4 9/25/4
f 33/50/6 125/51/6 126/23/6 25/22/6
f 15/16/5 14/26/5 129/52/5 27/53/5
f 73/43/4 65/15/4 27/17/4 38/54/4
f 74/55/4 72/56/4 30/42/4 75/41/4
f 3/13/1 128/57/1 129/58/1 14/26/1
f 52/12/1 130/59/1 128/57/1 3/13/1
f 62/60/4 73/43/4 38/54/4 12/61/4
f 10/30/6 16/29/6 125/51/6 33/50/6
f 5/62/1 37/63/1 125/64/1 16/65/1
f 29/66/4 35/67/4 63/35/4 69/48/4
f 69/48/4 63/35/4 33/38/4 25/49/4
f 27/53/5 129/52/5 131/19/5 38/18/5
f 140/68/1 145/69/1 34/70/1 26/71/1
f 142/72/1 146/73/1 145/69/1 140/68/1
f 139/45/1 144/44/1 148/74/1 147/75/1
f 1/27/1 127/39/1 135/76/1 42/77/1
f 35/67/4 29/66/4 78/78/4 79/79/4
f 83/80/4 46/81/4 67/82/4 82/11/4
f 68/28/3 1/27/3 42/77/3 67/82/3
f 61/83/2 58/84/2 43/8/2 77/7/2
f 37/63/1 5/62/1 43/85/1 136/86/1
f 62/32/2 7/31/2 58/84/2 61/83/2
f 147/75/1 148/74/1 146/73/1 142/72/1
f 45/87/4 79/79/4 74/55/4 53/88/4
f 42/77/1 135/76/1 130/59/1 52/12/1
f 79/79/4 78/78/4 72/56/4 74/55/4
f 45/87/4 53/88/4 61/89/4 77/90/4
f 67/82/3 42/77/3 52/12/3 82/11/3
f 78/78/4 46/81/4 83/80/4 72/56/4
f 136/86/1 43/85/1 58/2/1 134/1/1
f 51/91/11 18/92/11 62/60/11 61/89/11
f 31/93/12 17/94/12 64/36/12 63/35/12
f 23/95/13 20/96/13 66/14/13 65/15/13
f 44/97/14 19/98/14 68/28/14 67/82/14
f 19/98/12 21/99/12 69/48/12 68/28/12
f 70/100/15 23/95/15 65/15/15 30/42/15
f 21/99/16 71/101/16 29/66/16 69/48/16
f 54/102/17 70/100/17 30/42/17 72/56/17
f 18/92/13 36/103/13 73/43/13 62/60/13
f 40/104/18 56/105/18 74/55/18 75/41/18
f 36/103/19 40/104/19 75/41/19 73/43/19
f 76/106/20 31/93/20 63/35/20 35/67/20
f 17/94/11 41/107/11 77/90/11 64/36/11
f 71/101/17 47/108/17 78/78/17 29/66/17
f 49/109/18 76/106/18 35/67/18 79/79/18
f 80/110/21 49/109/21 79/79/21 45/87/21
f 81/111/22 44/97/22 67/82/22 46/81/22
f 41/107/23 80/110/23 45/87/23 77/90/23
f 47/108/21 81/111/21 46/81/21 78/78/21
f 20/96/14 59/112/14 82/11/14 66/14/14
f 59/112/24 60/113/24 83/80/24 82/11/24
f 56/105/25 84/114/25 53/88/25 74/55/25
f 84/114/26 51/91/26 61/89/26 53/88/26
f 60/113/25 54/102/25 72/56/25 83/80/25
f 137/115/1 138/116/1 126/40/1 125/64/1
f 138/116/1 24/117/1 127/39/1 126/40/1
f 22/118/1 141/119/1 129/58/1 128/57/1
f 55/120/1 22/118/1 128/57/1 130/59/1
f 141/119/1 143/121/1 131/6/1 129/58/1
f 132/122/1 137/115/1 125/64/1 37/63/1
f 143/121/1 32/123/1 133/4/1 131/6/1
f 32/123/1 57/124/1 134/1/1 133/4/1
f 24/117/1 48/125/1 135/76/1 127/39/1
f 50/126/1 132/122/1 37/63/1 136/86/1
f 48/125/1 55/120/1 130/59/1 135/76/1
f 57/124/1 50/126/1 136/86/1 134/1/1
usemtl Полевая_мебель_БМ_2
f 40/104/27 8/127/27 86/128/27 94/129/27
f 84/114/28 8/127/28 18/92/28 51/91/28
f 76/106/29 6/130/29 17/94/29 31/93/29
f 70/100/30 4/131/30 20/96/30 23/95/30
f 81/111/31 2/132/31 19/98/31 44/97/31
f 2/132/32 71/101/32 21/99/32 19/98/32
f 8/127/33 84/114/33 85/133/33 86/128/33
f 8/127/34 40/104/34 36/103/34 18/92/34
f 54/102/35 60/113/35 96/134/35 97/135/35
f 6/130/36 80/110/36 41/107/36 17/94/36
f 49/109/37 80/110/37 95/136/37 100/137/37
f 4/131/38 60/113/38 59/112/38 20/96/38
f 91/138/5 99/139/5 115/140/5 107/141/5
f 94/129/39 86/128/39 102/142/39 110/143/39
f 100/137/5 95/136/5 111/144/5 116/145/5
f 93/146/40 92/147/40 108/148/40 109/149/40
f 80/110/41 6/130/41 88/150/41 95/136/41
f 56/105/3 40/104/3 94/129/3 98/151/3
f 6/130/42 76/106/42 87/152/42 88/150/42
f 71/101/43 2/132/43 92/147/43 93/146/43
f 4/131/44 70/100/44 89/153/44 90/154/44
f 81/111/37 47/108/37 99/139/37 91/138/37
f 2/132/45 81/111/45 91/138/45 92/147/45
f 60/113/46 4/131/46 90/154/46 96/134/46
f 47/108/2 71/101/2 93/146/2 99/139/2
f 84/114/35 56/105/35 98/151/35 85/133/35
f 76/106/3 49/109/3 100/137/3 87/152/3
f 70/100/2 54/102/2 97/135/2 89/153/2
f 113/155/4 112/156/4 106/157/4 105/158/4
f 101/159/4 114/160/4 110/143/4 102/142/4
f 104/161/4 103/162/4 116/145/4 111/144/4
f 109/149/4 108/148/4 107/141/4 115/140/4
f 95/136/47 88/150/47 104/161/47 111/144/47
f 85/133/6 98/151/6 114/160/6 101/159/6
f 96/134/48 90/154/48 106/157/48 112/156/48
f 86/128/49 85/133/49 101/159/49 102/142/49
f 97/135/6 96/134/6 112/156/6 113/155/6
f 114/160/6 98/151/6 117/163/6 121/164/6
f 88/150/50 87/152/50 103/162/50 104/161/50
f 109/149/4 115/140/4 124/165/4 123/166/4
f 90/154/51 89/153/51 105/158/51 106/157/51
f 93/146/6 109/149/6 123/166/6 119/167/6
f 92/147/52 91/138/52 107/141/52 108/148/52
f 110/143/4 114/160/4 121/164/4 122/168/4
f 116/145/4 103/162/4 123/169/4 124/170/4
f 100/137/5 116/145/5 124/170/5 120/171/5
f 89/153/1 97/135/1 117/172/1 118/173/1
f 94/129/5 110/143/5 122/168/5 118/174/5
f 98/151/1 94/129/1 118/174/1 117/163/1
f 97/135/6 113/155/6 121/175/6 117/172/6
f 115/140/5 99/139/5 120/176/5 124/165/5
f 99/139/1 93/146/1 119/167/1 120/176/1
f 105/158/5 89/153/5 118/173/5 122/177/5
f 113/155/4 105/158/4 122/177/4 121/175/4
f 87/152/1 100/137/1 120/171/1 119/178/1
f 103/162/6 87/152/6 119/178/6 123/169/6
f 39/47/1 28/46/1 138/116/1 137/115/1
f 28/46/1 139/45/1 24/117/1 138/116/1
f 140/68/1 26/71/1 141/119/1 22/118/1
f 142/72/1 140/68/1 22/118/1 55/120/1
f 26/71/1 34/70/1 143/121/1 141/119/1
f 144/44/1 39/47/1 137/115/1 132/122/1
f 34/70/1 145/69/1 32/123/1 143/121/1
f 145/69/1 146/73/1 57/124/1 32/123/1
f 139/45/1 147/75/1 48/125/1 24/117/1
f 148/74/1 144/44/1 132/122/1 50/126/1
f 147/75/1 142/72/1 55/120/1 48/125/1
f 146/73/1 148/74/1 50/126/1 57/124/1
