# Blender v2.83.12 OBJ File: 'Ограда 2.blend'
# www.blender.org
mtllib Ограда 2.mtl
o Cube
v 0.100000 2.000000 0.200000
v 0.200000 0.000000 0.200000
v 0.100000 2.000000 2.200000
v 0.200000 0.000000 2.200000
v -0.100000 2.000000 0.200000
v -0.200000 0.000000 0.200000
v -0.100000 2.000000 2.200000
v -0.200000 0.000000 2.200000
v 0.200000 1.000000 0.200000
v -0.200000 1.000000 2.200000
v 0.200000 1.000000 2.200000
v -0.200000 1.000000 0.200000
vt 0.625000 0.500000
vt 0.875000 0.500000
vt 0.875000 0.750000
vt 0.625000 0.750000
vt 0.500000 0.750000
vt 0.625000 1.000000
vt 0.500000 1.000000
vt 0.500000 0.000000
vt 0.625000 0.000000
vt 0.625000 0.250000
vt 0.500000 0.250000
vt 0.125000 0.500000
vt 0.375000 0.500000
vt 0.375000 0.750000
vt 0.125000 0.750000
vt 0.500000 0.500000
vt 0.375000 0.250000
vt 0.375000 0.000000
vt 0.375000 1.000000
vn 0.0000 1.0000 0.0000
vn 0.0000 0.0000 1.0000
vn -0.9950 0.0995 0.0000
vn 0.0000 -1.0000 0.0000
vn 0.9950 0.0995 0.0000
vn 0.0000 0.0000 -1.0000
vn 1.0000 0.0000 0.0000
vn -1.0000 0.0000 0.0000
usemtl Бетон_ограда_БМ1
s off
f 1/1/1 5/2/1 7/3/1 3/4/1
f 11/5/2 3/4/2 7/6/2 10/7/2
f 10/8/3 7/9/3 5/10/3 12/11/3
f 6/12/4 2/13/4 4/14/4 8/15/4
f 9/16/5 1/1/5 3/4/5 11/5/5
f 12/11/6 5/10/6 1/1/6 9/16/6
f 6/17/6 12/11/6 9/16/6 2/13/6
f 2/13/7 9/16/7 11/5/7 4/14/7
f 8/18/8 10/8/8 12/11/8 6/17/8
f 4/14/2 11/5/2 10/7/2 8/19/2
o Cube.001
v -0.219839 -0.015776 0.219839
v -0.219839 0.423903 0.219839
v -0.219839 -0.015776 -0.219839
v -0.219839 0.423903 -0.219839
v 0.219839 -0.015776 0.219839
v 0.219839 0.423903 0.219839
v 0.219839 -0.015776 -0.219839
v 0.219839 0.423903 -0.219839
v -0.219839 2.011700 0.219839
v -0.219839 2.011700 -0.219839
v 0.219839 2.011700 -0.219839
v 0.219839 2.011700 0.219839
v -0.163500 2.139131 0.163500
v -0.163500 2.139131 -0.163500
v 0.163500 2.139131 -0.163500
v 0.163500 2.139131 0.163500
vt 0.375000 0.000000
vt 0.625000 0.000000
vt 0.625000 0.250000
vt 0.375000 0.250000
vt 0.625000 0.500000
vt 0.375000 0.500000
vt 0.625000 0.750000
vt 0.375000 0.750000
vt 0.625000 1.000000
vt 0.375000 1.000000
vt 0.125000 0.500000
vt 0.125000 0.750000
vt 0.625000 0.250000
vt 0.625000 0.500000
vt 0.625000 0.750000
vt 0.625000 0.500000
vt 0.625000 0.750000
vt 0.625000 0.000000
vt 0.625000 1.000000
vt 0.875000 0.500000
vt 0.875000 0.750000
vt 0.625000 0.000000
vt 0.625000 0.250000
vt 0.625000 1.000000
vn -1.0000 0.0000 0.0000
vn 0.0000 0.0000 -1.0000
vn 1.0000 0.0000 0.0000
vn 0.0000 0.0000 1.0000
vn 0.0000 -1.0000 0.0000
vn 0.9146 0.4044 0.0000
vn 0.0000 1.0000 0.0000
vn -0.9146 0.4044 0.0000
vn 0.0000 0.4044 0.9146
vn 0.0000 0.4044 -0.9146
usemtl Бетон_ограда_БМ1
s off
f 13/20/9 14/21/9 16/22/9 15/23/9
f 15/23/10 16/22/10 20/24/10 19/25/10
f 19/25/11 20/24/11 18/26/11 17/27/11
f 17/27/12 18/26/12 14/28/12 13/29/12
f 15/30/13 19/25/13 17/27/13 13/31/13
f 20/24/10 16/22/10 22/32/10 23/33/10
f 24/34/14 23/33/14 27/35/14 28/36/14
f 18/26/11 20/24/11 23/33/11 24/34/11
f 16/22/9 14/21/9 21/37/9 22/32/9
f 14/28/12 18/26/12 24/34/12 21/38/12
f 27/35/15 26/39/15 25/40/15 28/36/15
f 22/32/16 21/37/16 25/41/16 26/42/16
f 21/38/17 24/34/17 28/36/17 25/43/17
f 23/33/18 22/32/18 26/42/18 27/35/18
o Cube.002
v -0.203886 2.000000 0.100000
v -0.203886 0.000000 0.200000
v -2.203886 2.000000 0.100000
v -2.203886 0.000000 0.200000
v -0.203886 2.000000 -0.100000
v -0.203886 0.000000 -0.200000
v -2.203886 2.000000 -0.100000
v -2.203886 0.000000 -0.200000
v -0.203886 1.000000 0.200000
v -2.203886 1.000000 -0.200000
v -2.203886 1.000000 0.200000
v -0.203886 1.000000 -0.200000
vt 0.625000 0.500000
vt 0.875000 0.500000
vt 0.875000 0.750000
vt 0.625000 0.750000
vt 0.500000 0.750000
vt 0.625000 1.000000
vt 0.500000 1.000000
vt 0.500000 0.000000
vt 0.625000 0.000000
vt 0.625000 0.250000
vt 0.500000 0.250000
vt 0.125000 0.500000
vt 0.375000 0.500000
vt 0.375000 0.750000
vt 0.125000 0.750000
vt 0.500000 0.500000
vt 0.375000 0.250000
vt 0.375000 0.000000
vt 0.375000 1.000000
vn 0.0000 1.0000 0.0000
vn -1.0000 0.0000 0.0000
vn -0.0000 0.0995 -0.9950
vn 0.0000 -1.0000 0.0000
vn 0.0000 0.0995 0.9950
vn 1.0000 0.0000 0.0000
vn 0.0000 0.0000 1.0000
vn -0.0000 0.0000 -1.0000
usemtl Бетон_ограда_БМ1
s off
f 29/44/19 33/45/19 35/46/19 31/47/19
f 39/48/20 31/47/20 35/49/20 38/50/20
f 38/51/21 35/52/21 33/53/21 40/54/21
f 34/55/22 30/56/22 32/57/22 36/58/22
f 37/59/23 29/44/23 31/47/23 39/48/23
f 40/54/24 33/53/24 29/44/24 37/59/24
f 34/60/24 40/54/24 37/59/24 30/56/24
f 30/56/25 37/59/25 39/48/25 32/57/25
f 36/61/26 38/51/26 40/54/26 34/60/26
f 32/57/20 39/48/20 38/50/20 36/62/20
