# Blender v2.83.12 OBJ File: 'П2.blend'
# www.blender.org
mtllib П2.mtl
o Plane
v -1.000000 0.000000 1.000000
v 1.000000 0.000000 1.000000
v -1.000000 0.000000 -1.000000
v 1.000000 0.000000 -1.000000
v -1.000000 1.075523 -0.800000
v -1.000000 1.075523 0.800000
v 1.000000 1.075523 0.800000
v 1.000000 1.075523 -0.800000
v -1.000000 1.431313 -0.640000
v -1.000000 1.431313 0.640000
v 1.000000 1.431313 0.640000
v 1.000000 1.431313 -0.640000
v -1.000000 1.675953 0.000000
v 1.000000 1.675953 0.000000
v -0.333333 0.000000 1.000000
v 0.333333 0.000000 1.000000
v 0.333333 0.000000 -1.000000
v -0.333333 0.000000 -1.000000
v -0.269591 1.015979 0.828454
v 0.269591 1.015979 0.828454
v 0.269591 1.015979 -0.828454
v -0.269591 1.015979 -0.828454
v -0.333333 1.431313 0.640000
v 0.333333 1.431313 0.640000
v 0.333333 1.431313 -0.640000
v -0.333333 1.431313 -0.640000
v 0.333333 1.675953 0.000000
v -0.333333 1.675953 0.000000
v -1.000000 0.537761 -0.900000
v 1.000000 0.537761 -0.900000
v 1.000000 0.537761 0.900000
v -1.000000 0.537761 0.900000
v -0.269591 0.603554 0.905147
v 0.269591 0.603554 0.905147
v 0.269591 0.603554 -0.905147
v -0.269591 0.603554 -0.905147
v -0.333333 1.075523 0.800000
v 0.333333 1.075523 0.800000
v 0.333333 1.075523 -0.800000
v -0.333333 1.075523 -0.800000
v -0.333333 0.537761 0.900000
v 0.333333 0.537761 0.900000
v 0.333333 0.537761 -0.900000
v -0.333333 0.537761 -0.900000
v -0.304032 1.046716 0.805357
v 0.304032 1.046716 0.805357
v 0.304032 1.046716 -0.805357
v -0.304032 1.046716 -0.805357
v -0.304032 0.566569 0.894643
v 0.304032 0.566569 0.894643
v 0.304032 0.566569 -0.894643
v -0.304032 0.566569 -0.894643
v -1.000000 0.012784 0.984620
v 1.000000 0.012784 0.984620
v -1.000000 0.012784 -0.984620
v 1.000000 0.012784 -0.984620
v -1.000000 1.069551 -0.780913
v -1.000000 1.069551 0.780913
v 1.000000 1.069551 0.780913
v 1.000000 1.069551 -0.780913
v -1.000000 1.416770 -0.626270
v -1.000000 1.416770 0.626270
v 1.000000 1.416770 0.626270
v 1.000000 1.416770 -0.626270
v -1.000000 1.655953 0.000000
v 1.000000 1.655953 0.000000
v -0.333333 0.012784 0.984620
v 0.333333 0.012784 0.984620
v 0.333333 0.012784 -0.984620
v -0.333333 0.012784 -0.984620
v -0.266109 1.009012 0.810034
v 0.266109 1.009012 0.810034
v 0.266109 1.009012 -0.810034
v -0.266109 1.009012 -0.810034
v -0.333333 1.416770 0.626270
v 0.333333 1.416770 0.626270
v 0.333333 1.416770 -0.626270
v -0.333333 1.416770 -0.626270
v 0.333333 1.655953 0.000000
v -0.333333 1.655953 0.000000
v -1.000000 0.534105 -0.880338
v 1.000000 0.534105 -0.880338
v 1.000000 0.534105 0.880338
v -1.000000 0.534105 0.880338
v -0.266109 0.603433 0.885454
v 0.266109 0.603433 0.885454
v 0.266109 0.603433 -0.885454
v -0.266109 0.603433 -0.885454
v -0.333333 1.069551 0.780913
v 0.333333 1.069551 0.780913
v 0.333333 1.069551 -0.780913
v -0.333333 1.069551 -0.780913
v -0.333333 0.534105 0.880338
v 0.333333 0.534105 0.880338
v 0.333333 0.534105 -0.880338
v -0.333333 0.534105 -0.880338
v -0.302835 1.041896 0.785984
v 0.302835 1.041896 0.785984
v 0.302835 1.041896 -0.785984
v -0.302835 1.041896 -0.785984
v -0.302835 0.564103 0.874832
v 0.302835 0.564103 0.874832
v 0.302835 0.564103 -0.874832
v -0.302835 0.564103 -0.874832
vt 0.103242 0.000000
vt 0.103242 0.333333
vt 0.000000 0.333333
vt 0.000000 0.000000
vt 0.162638 0.777778
vt 0.162638 0.666667
vt 0.214989 0.666667
vt 0.214989 0.777778
vt 0.526482 0.888889
vt 0.526482 1.000000
vt 0.445164 1.000000
vt 0.445164 0.888889
vt 0.081319 0.777778
vt 0.081319 0.666667
vt 0.392812 1.000000
vt 0.392812 0.888889
vt 0.806027 0.888889
vt 0.806027 1.000000
vt 0.706914 1.000000
vt 0.706914 0.888889
vt 0.607801 0.777778
vt 0.607801 0.666667
vt 0.706914 0.666667
vt 0.706914 0.777778
vt 0.607801 1.000000
vt 0.607801 0.888889
vt 0.806027 0.666667
vt 0.806027 0.777778
vt 0.445164 0.666667
vt 0.445164 0.777778
vt 0.392812 0.777778
vt 0.392812 0.666667
vt 0.081319 1.000000
vt 0.081319 0.888889
vt 0.162638 0.888889
vt 0.162638 1.000000
vt 0.526482 0.666667
vt 0.526482 0.777778
vt 0.214989 0.888889
vt 0.214989 1.000000
vt 0.309727 0.000000
vt 0.309727 0.333333
vt 0.206485 0.333333
vt 0.206485 0.000000
vt 0.607801 0.777778
vt 0.607801 0.888889
vt 0.607801 0.666667
vt 0.000000 0.888889
vt 0.000000 0.777778
vt 0.000000 1.000000
vt 0.000000 0.666667
vt 0.607801 1.000000
vt 0.309727 0.111111
vt 0.309727 0.000000
vt 0.614691 0.000000
vt 0.614691 0.111111
vt 0.448705 0.444444
vt 0.392812 0.444444
vt 0.392812 0.333333
vt 0.448705 0.333333
vt 0.696634 0.555556
vt 0.780677 0.555556
vt 0.780677 0.666667
vt 0.696634 0.666667
vt 0.532749 0.444444
vt 0.532749 0.333333
vt 0.836570 0.555556
vt 0.836570 0.666667
vt 0.806027 0.888889
vt 0.903013 0.888889
vt 0.903013 1.000000
vt 0.806027 1.000000
vt 1.000000 0.777778
vt 0.903013 0.777778
vt 0.903013 0.666667
vt 1.000000 0.666667
vt 1.000000 1.000000
vt 1.000000 0.888889
vt 0.806027 0.666667
vt 0.806027 0.777778
vt 0.780677 0.333333
vt 0.836570 0.333333
vt 0.836570 0.444444
vt 0.780677 0.444444
vt 0.532749 0.666667
vt 0.448705 0.666667
vt 0.448705 0.555556
vt 0.532749 0.555556
vt 0.696634 0.333333
vt 0.696634 0.444444
vt 0.392812 0.666667
vt 0.392812 0.555556
vt 0.309727 0.333333
vt 0.309727 0.222222
vt 0.614691 0.222222
vt 0.614691 0.333333
vt 0.614691 0.444444
vt 0.614691 0.555556
vt 0.614691 0.333333
vt 0.614691 0.555555
vt 0.614691 0.444444
vt 0.614691 0.666667
vt 0.614691 0.333333
vt 0.614691 0.666667
vt 0.874235 0.000000
vt 0.874235 0.333333
vt 0.872256 0.330770
vt 0.872256 0.002563
vt 0.259544 0.333333
vt 0.259544 0.666667
vt 0.257565 0.664103
vt 0.257565 0.335897
vt 0.707676 0.033333
vt 0.790956 0.016667
vt 0.791522 0.019944
vt 0.708601 0.036515
vt 0.176265 0.650000
vt 0.176831 0.646723
vt 0.092985 0.366667
vt 0.176264 0.350000
vt 0.176831 0.353277
vt 0.093910 0.369848
vt 0.790956 0.316667
vt 0.791522 0.313390
vt 0.037886 0.393333
vt 0.040138 0.395622
vt 0.707676 0.300000
vt 0.652577 0.273333
vt 0.654829 0.271045
vt 0.708601 0.296819
vt 0.092985 0.633333
vt 0.037886 0.606667
vt 0.040138 0.604378
vt 0.093910 0.630152
vt 0.652577 0.060000
vt 0.654829 0.062288
vt 0.614691 0.166667
vt 0.617788 0.166667
vt 0.000000 0.500000
vt 0.003097 0.500000
vt 0.347984 0.000000
vt 0.652016 0.000000
vt 0.666667 0.000000
vt 0.333333 0.000000
vt 0.652016 1.000000
vt 0.347984 1.000000
vt 0.333333 1.000000
vt 0.666667 1.000000
vt 0.347984 0.000000
vt 0.333333 0.000000
vt 0.652016 0.000000
vt 0.666667 0.000000
vt 0.652016 1.000000
vt 0.666667 1.000000
vt 0.347984 1.000000
vt 0.333333 1.000000
vt 0.347984 0.000000
vt 0.333333 0.000000
vt 0.666667 0.000000
vt 0.652016 0.000000
vt 0.652016 1.000000
vt 0.666667 1.000000
vt 0.333333 1.000000
vt 0.347984 1.000000
vt 0.347984 0.000000
vt 0.333333 0.000000
vt 0.666667 0.000000
vt 0.652016 0.000000
vt 0.652016 1.000000
vt 0.666667 1.000000
vt 0.333333 1.000000
vt 0.347984 1.000000
vt 0.365204 0.000000
vt 0.634796 0.000000
vt 0.634795 0.000000
vt 0.365204 0.000000
vt 0.634795 1.000000
vt 0.365204 1.000000
vt 0.365204 1.000000
vt 0.634795 1.000000
vt 0.365204 0.000000
vt 0.365204 0.000000
vt 0.634795 0.000000
vt 0.634796 0.000000
vt 0.634795 1.000000
vt 0.634795 1.000000
vt 0.365204 1.000000
vt 0.365204 1.000000
vn 0.0000 -1.0000 0.0000
vn 0.0000 0.4101 0.9120
vn 0.0000 0.1828 -0.9831
vn 0.0000 0.1828 0.9831
vn 0.0000 0.4101 -0.9120
vn 0.0000 0.9341 -0.3571
vn 0.0000 0.9341 0.3571
vn 0.0000 1.0000 0.0000
vn 0.0000 -0.4068 -0.9135
vn 0.0000 -0.1826 0.9832
vn 0.0000 -0.1826 -0.9832
vn 0.0000 -0.4068 0.9135
vn 0.0000 -0.9342 0.3568
vn 0.0000 -0.9342 -0.3568
vn 0.0000 -0.1961 0.9806
vn 0.0000 -0.1961 -0.9806
vn -1.0000 -0.0000 0.0000
vn 1.0000 -0.0000 0.0000
vn 0.0000 -0.1804 -0.9836
vn 0.0000 -0.1804 0.9836
vn 0.0000 -0.1827 -0.9832
vn -0.0000 -0.1827 0.9832
vn 0.0000 -0.1805 0.9836
vn 0.0000 -0.1805 -0.9836
vn 0.0000 0.6008 0.7994
vn 0.0000 0.6008 -0.7994
vn -0.4445 0.1638 0.8807
vn 0.4445 0.1638 0.8807
vn 0.4445 0.1638 -0.8807
vn -0.4445 0.1638 -0.8807
vn 0.0000 -0.2732 -0.9620
vn 0.0000 -0.2732 0.9620
vn 0.0000 -0.1828 -0.9831
vn 0.0000 -0.1828 0.9831
vn 0.0000 -0.5903 -0.8072
vn 0.0000 -0.5903 0.8072
vn 0.4328 -0.1648 -0.8863
vn -0.4328 -0.1648 -0.8863
vn -0.4328 -0.1648 0.8863
vn 0.4328 -0.1648 0.8863
vn 0.0000 0.2607 0.9654
vn 0.0000 0.2607 -0.9654
usemtl Брезент_БМ1
s off
f 16/1/1 17/2/1 4/3/1 2/4/1
f 38/5/2 7/6/2 11/7/2 24/8/2
f 44/9/3 29/10/3 5/11/3 40/12/3
f 42/13/4 31/14/4 7/6/4 38/5/4
f 40/12/5 5/11/5 9/15/5 26/16/5
f 26/17/6 9/18/6 13/19/6 28/20/6
f 24/21/7 11/22/7 14/23/7 27/24/7
f 10/25/7 23/26/7 28/20/7 13/19/7
f 23/26/7 24/21/7 27/24/7 28/20/7
f 12/27/6 25/28/6 27/24/6 14/23/6
f 25/28/6 26/17/6 28/20/6 27/24/6
f 8/29/5 39/30/5 25/31/5 12/32/5
f 39/30/5 40/12/5 26/16/5 25/31/5
f 32/33/4 41/34/4 37/35/4 6/36/4
f 30/37/3 43/38/3 39/30/3 8/29/3
f 6/36/2 37/35/2 23/39/2 10/40/2
f 37/35/2 38/5/2 24/8/2 23/39/2
f 1/41/1 3/42/1 18/43/1 15/44/1
f 15/44/1 18/43/1 17/2/1 16/1/1
f 17/45/3 18/46/3 44/9/3 43/38/3
f 4/47/3 17/45/3 43/38/3 30/37/3
f 15/48/4 16/49/4 42/13/4 41/34/4
f 1/50/4 15/48/4 41/34/4 32/33/4
f 16/49/4 2/51/4 31/14/4 42/13/4
f 18/46/3 3/52/3 29/10/3 44/9/3
f 68/53/8 54/54/8 56/55/8 69/56/8
f 90/57/9 76/58/9 63/59/9 59/60/9
f 96/61/10 92/62/10 57/63/10 81/64/10
f 94/65/11 90/57/11 59/60/11 83/66/11
f 92/62/12 78/67/12 61/68/12 57/63/12
f 78/69/13 80/70/13 65/71/13 61/72/13
f 76/73/14 79/74/14 66/75/14 63/76/14
f 62/77/14 65/71/14 80/70/14 75/78/14
f 75/78/14 80/70/14 79/74/14 76/73/14
f 64/79/13 66/75/13 79/74/13 77/80/13
f 77/80/13 79/74/13 80/70/13 78/69/13
f 60/81/12 64/82/12 77/83/12 91/84/12
f 91/84/12 77/83/12 78/67/12 92/62/12
f 84/85/11 58/86/11 89/87/11 93/88/11
f 82/89/10 60/81/10 91/84/10 95/90/10
f 58/86/9 62/91/9 75/92/9 89/87/9
f 89/87/9 75/92/9 76/58/9 90/57/9
f 53/93/8 67/94/8 70/95/8 55/96/8
f 67/94/8 68/53/8 69/56/8 70/95/8
f 69/97/15 95/90/15 96/61/15 70/98/15
f 56/99/15 82/89/15 95/90/15 69/97/15
f 67/100/16 93/88/16 94/65/16 68/101/16
f 53/102/16 84/85/16 93/88/16 67/100/16
f 68/101/16 94/65/16 83/66/16 54/103/16
f 70/98/15 96/61/15 81/64/15 55/104/15
f 3/105/17 1/106/17 53/107/17 55/108/17
f 2/109/18 4/110/18 56/111/18 54/112/18
f 5/113/17 29/114/17 81/115/17 57/116/17
f 4/110/18 30/117/18 82/118/18 56/111/18
f 7/119/18 31/120/18 83/121/18 59/122/18
f 1/106/17 32/123/17 84/124/17 53/107/17
f 11/125/18 7/119/18 59/122/18 63/126/18
f 6/127/17 10/128/17 62/129/17 58/130/17
f 8/131/18 12/132/18 64/133/18 60/134/18
f 9/135/17 5/113/17 57/116/17 61/136/17
f 10/128/17 13/137/17 65/138/17 62/129/17
f 14/139/18 11/125/18 63/126/18 66/140/18
f 13/137/17 9/135/17 61/136/17 65/138/17
f 12/132/18 14/139/18 66/140/18 64/133/18
f 29/114/17 3/105/17 55/108/17 81/115/17
f 30/117/18 8/131/18 60/134/18 82/118/18
f 31/120/18 2/109/18 54/112/18 83/121/18
f 32/123/17 6/127/17 58/130/17 84/124/17
usemtl Брезент_БМ2
f 45/141/4 46/142/4 38/143/4 37/144/4
f 47/145/3 48/146/3 40/147/3 39/148/3
f 49/149/4 45/141/4 37/144/4 41/150/4
f 46/142/4 50/151/4 42/152/4 38/143/4
f 51/153/3 47/145/3 39/148/3 43/154/3
f 48/146/3 52/155/3 44/156/3 40/147/3
f 52/155/3 51/153/3 43/154/3 44/156/3
f 50/151/4 49/149/4 41/150/4 42/152/4
f 97/157/19 89/158/19 90/159/19 98/160/19
f 99/161/20 91/162/20 92/163/20 100/164/20
f 101/165/21 93/166/21 89/158/21 97/157/21
f 98/160/21 90/159/21 94/167/21 102/168/21
f 103/169/22 95/170/22 91/162/22 99/161/22
f 100/164/22 92/163/22 96/171/22 104/172/22
f 104/172/23 96/171/23 95/170/23 103/169/23
f 102/168/24 94/167/24 93/166/24 101/165/24
usemtl Окно_палатки_БМ1
f 33/173/4 34/174/4 20/175/4 19/176/4
f 35/177/3 36/178/3 22/179/3 21/180/3
f 19/176/25 20/175/25 46/142/25 45/141/25
f 21/180/26 22/179/26 48/146/26 47/145/26
f 33/173/27 19/176/27 45/141/27 49/149/27
f 20/175/28 34/174/28 50/151/28 46/142/28
f 35/177/29 21/180/29 47/145/29 51/153/29
f 22/179/30 36/178/30 52/155/30 48/146/30
f 36/178/31 35/177/31 51/153/31 52/155/31
f 34/174/32 33/173/32 49/149/32 50/151/32
f 85/181/33 71/182/33 72/183/33 86/184/33
f 87/185/34 73/186/34 74/187/34 88/188/34
f 71/182/35 97/157/35 98/160/35 72/183/35
f 73/186/36 99/161/36 100/164/36 74/187/36
f 85/181/37 101/165/37 97/157/37 71/182/37
f 72/183/38 98/160/38 102/168/38 86/184/38
f 87/185/39 103/169/39 99/161/39 73/186/39
f 74/187/40 100/164/40 104/172/40 88/188/40
f 88/188/41 104/172/41 103/169/41 87/185/41
f 86/184/42 102/168/42 101/165/42 85/181/42
