# Blender v2.83.12 OBJ File: 'П5.blend'
# www.blender.org
mtllib П5.mtl
o Cube
v 1.000000 1.594674 -1.000000
v 1.000000 -0.005326 -1.000000
v 1.000000 1.594674 1.000000
v 1.000000 -0.005326 1.000000
v -1.000000 1.594674 -1.000000
v -1.000000 -0.005326 -1.000000
v -1.000000 1.594674 1.000000
v -1.000000 -0.005326 1.000000
v 0.859409 1.755346 0.859409
v -0.859409 1.755346 0.859409
v 0.859409 1.755346 -0.859409
v -0.859409 1.755346 -0.859409
v 0.670102 1.872751 0.670102
v -0.670102 1.872751 0.670102
v 0.670102 1.872751 -0.670102
v -0.670102 1.872751 -0.670102
v 0.461361 1.935844 0.461361
v -0.461361 1.935844 0.461361
v 0.461361 1.935844 -0.461361
v -0.461361 1.935844 -0.461361
v -1.000000 0.063069 -0.603594
v 1.000000 1.594674 -0.700000
v -1.000000 1.594674 -0.700000
v 1.000000 0.063069 -0.603594
v 0.859409 1.755346 -0.601586
v -0.859409 1.755346 -0.601586
v 0.670102 1.872751 -0.469071
v -0.670102 1.872751 -0.469071
v 0.461361 1.935844 -0.322953
v -0.461361 1.935844 -0.322953
v -1.000000 0.063069 0.648594
v 1.000000 1.594674 0.745000
v 0.859409 1.755346 0.640259
v 0.670102 1.872751 0.499226
v 0.461361 1.935844 0.343714
v -1.000000 1.594674 0.745000
v 1.000000 0.063069 0.648594
v -0.859409 1.755346 0.640259
v -0.670102 1.872751 0.499226
v -0.461361 1.935844 0.343714
v -0.599685 0.063069 -1.000000
v -0.700000 1.594674 1.000000
v -0.599685 0.063069 1.000000
v -0.700000 1.594674 -1.000000
v -0.601586 1.755346 0.859409
v -0.601586 1.755346 -0.859409
v -0.469071 1.872751 0.670102
v -0.469071 1.872751 -0.670102
v -0.322953 1.935844 0.461361
v -0.322953 1.935844 -0.461361
v -0.322953 1.935844 -0.322953
v -0.700000 -0.005326 -0.700000
v -0.322953 1.935844 0.343714
v -0.700000 -0.005326 0.745000
v 0.644685 0.063069 1.000000
v 0.745000 1.594674 -1.000000
v 0.640259 1.755346 -0.859409
v 0.499226 1.872751 -0.670102
v 0.343714 1.935844 -0.461361
v 0.343714 1.935844 -0.322953
v 0.343714 1.935844 0.343714
v 0.644685 0.063069 -1.000000
v 0.745000 1.594674 1.000000
v 0.640259 1.755346 0.859409
v 0.499226 1.872751 0.670102
v 0.343714 1.935844 0.461361
v 0.745000 -0.005326 -0.700000
v 0.745000 -0.005326 0.745000
v 1.000000 1.434674 -1.000000
v -1.000000 1.434674 1.000000
v 1.000000 1.434674 1.000000
v -1.000000 1.434674 -1.000000
v 1.000000 1.366278 -0.407433
v -1.000000 1.366278 -0.407433
v -1.000000 1.366278 0.452433
v 1.000000 1.366278 0.452433
v -0.338138 1.366278 -1.000000
v -0.338138 1.366278 1.000000
v 0.383138 1.366278 1.000000
v 0.383138 1.366278 -1.000000
v 1.000000 -0.005326 0.745000
v 1.000000 -0.005326 -0.700000
v 1.000000 1.434674 -0.483250
v -1.000000 1.434674 -0.483250
v -1.000000 -0.005326 -0.700000
v -1.000000 -0.005326 0.745000
v -1.000000 1.434674 0.528250
v 1.000000 1.434674 0.528250
v 0.745000 -0.005326 -1.000000
v -0.700000 -0.005326 -1.000000
v -0.411000 1.434674 -1.000000
v -0.411000 1.434674 1.000000
v -0.700000 -0.005326 1.000000
v 0.745000 -0.005326 1.000000
v 0.456000 1.434674 1.000000
v 0.456000 1.434674 -1.000000
v 0.986654 1.589384 -0.986654
v 0.988453 0.003911 -0.988453
v 0.986654 1.589384 0.986654
v 0.988453 0.003911 0.988453
v -0.986654 1.589384 -0.986654
v -0.988453 0.003911 -0.988453
v -0.986654 1.589384 0.986654
v -0.988453 0.003911 0.988453
v 0.850326 1.743082 0.850326
v -0.850326 1.743082 0.850326
v 0.850326 1.743082 -0.850326
v -0.850326 1.743082 -0.850326
v 0.664157 1.858234 0.664157
v -0.664157 1.858234 0.664157
v 0.664157 1.858234 -0.664157
v -0.664157 1.858234 -0.664157
v 0.458639 1.920144 0.458639
v -0.458639 1.920144 0.458639
v 0.458639 1.920144 -0.458639
v -0.458639 1.920144 -0.458639
v -0.980000 0.063069 -0.603594
v 0.980925 1.589863 -0.700000
v -0.980925 1.589863 -0.700000
v 0.980000 0.063069 -0.603594
v 0.844926 1.744311 -0.601586
v -0.844926 1.744311 -0.601586
v 0.660332 1.858791 -0.469071
v -0.660332 1.858791 -0.469071
v 0.457769 1.920105 -0.322953
v -0.457769 1.920105 -0.322953
v -0.980000 0.063069 0.648594
v 0.980925 1.589863 0.745000
v 0.844926 1.744311 0.640259
v 0.660332 1.858791 0.499226
v 0.457769 1.920105 0.343714
v -0.980925 1.589863 0.745000
v 0.980000 0.063069 0.648594
v -0.844926 1.744311 0.640259
v -0.660332 1.858791 0.499226
v -0.457769 1.920105 0.343714
v -0.599685 0.063069 -0.980000
v -0.700000 1.589863 0.980925
v -0.599685 0.063069 0.980000
v -0.700000 1.589863 -0.980925
v -0.601586 1.744311 0.844926
v -0.601586 1.744311 -0.844926
v -0.469071 1.858791 0.660332
v -0.469071 1.858791 -0.660332
v -0.322953 1.920105 0.457769
v -0.322953 1.920105 -0.457769
v -0.322953 1.919845 -0.322953
v -0.700000 0.010674 -0.700000
v -0.322953 1.919845 0.343714
v -0.700000 0.010674 0.745000
v 0.644685 0.063069 0.980000
v 0.745000 1.589863 -0.980925
v 0.640259 1.744311 -0.844926
v 0.499226 1.858791 -0.660332
v 0.343714 1.920105 -0.457769
v 0.343714 1.919845 -0.322953
v 0.343714 1.919845 0.343714
v 0.644685 0.063069 -0.980000
v 0.745000 1.589863 0.980925
v 0.640259 1.744311 0.844926
v 0.499226 1.858791 0.660332
v 0.343714 1.920105 0.457769
v 0.745000 0.010674 -0.700000
v 0.745000 0.010674 0.745000
v 0.985858 1.434674 -0.985858
v -0.985858 1.434674 0.985858
v 0.985858 1.434674 0.985858
v -0.985858 1.434674 -0.985858
v 0.980000 1.366278 -0.407433
v -0.980000 1.366278 -0.407433
v -0.980000 1.366278 0.452433
v 0.980000 1.366278 0.452433
v -0.338138 1.366278 -0.980000
v -0.338138 1.366278 0.980000
v 0.383138 1.366278 0.980000
v 0.383138 1.366278 -0.980000
v 0.985858 0.005987 0.745000
v 0.985858 0.005987 -0.700000
v 0.980000 1.434674 -0.483250
v -0.980000 1.434674 -0.483250
v -0.985858 0.005987 -0.700000
v -0.985858 0.005987 0.745000
v -0.980000 1.434674 0.528250
v 0.980000 1.434674 0.528250
v 0.745000 0.005987 -0.985858
v -0.700000 0.005987 -0.985858
v -0.411000 1.434674 -0.980000
v -0.411000 1.434674 0.980000
v -0.700000 0.005987 0.985858
v 0.745000 0.005987 0.985858
v 0.456000 1.434674 0.980000
v 0.456000 1.434674 -0.980000
vt 0.289170 0.296397
vt 0.251452 0.296397
vt 0.269133 0.271626
vt 0.301548 0.271626
vt 0.177399 0.321082
vt 0.213734 0.296397
vt 0.251452 0.296397
vt 0.251452 0.321082
vt 0.316421 0.222165
vt 0.289170 0.246850
vt 0.251452 0.246850
vt 0.251452 0.222165
vt 0.283512 0.574720
vt 0.251452 0.574720
vt 0.251452 0.543247
vt 0.283512 0.543247
vt 0.059311 0.222165
vt 0.032060 0.246850
vt 0.000000 0.246850
vt 0.000000 0.222165
vt 0.434509 0.321082
vt 0.470843 0.296397
vt 0.502904 0.296397
vt 0.502904 0.321082
vt 0.967552 0.429097
vt 0.967552 0.456145
vt 0.943745 0.432776
vt 0.943745 0.411686
vt 0.032060 0.296397
vt 0.000000 0.296397
vt 0.017671 0.271626
vt 0.045224 0.271626
vt 0.470843 0.246850
vt 0.502904 0.246850
vt 0.485233 0.271626
vt 0.457681 0.271626
vt 0.213734 0.246850
vt 0.251452 0.246850
vt 0.233770 0.271626
vt 0.201355 0.271626
vt 0.775247 0.292173
vt 0.775247 0.267361
vt 0.801488 0.293123
vt 0.801488 0.310206
vt 0.751452 0.275822
vt 0.751452 0.244000
vt 0.783867 0.456145
vt 0.751452 0.456145
vt 0.775247 0.432776
vt 0.800521 0.432776
vt 0.939999 0.244000
vt 0.967552 0.244000
vt 0.943745 0.267361
vt 0.922261 0.267361
vt 0.902707 0.310206
vt 0.902707 0.293123
vt 0.917498 0.293123
vt 0.917498 0.310206
vt 0.801488 0.407010
vt 0.818889 0.407010
vt 0.917498 0.407010
vt 0.917498 0.392489
vt 0.800521 0.267361
vt 0.818889 0.293123
vt 0.922261 0.432776
vt 0.902707 0.407010
vt 0.818889 0.310206
vt 0.783867 0.244000
vt 0.939999 0.456145
vt 0.045223 0.271626
vt 0.301549 0.271626
vt 0.251452 0.222165
vt 0.186483 0.222165
vt 0.283512 0.790097
vt 0.251452 0.790097
vt 0.251452 0.753069
vt 0.283512 0.753069
vt 0.443592 0.222165
vt 0.502904 0.222165
vt 0.502904 0.753069
vt 0.465186 0.753069
vt 0.465186 0.574720
vt 0.502904 0.574720
vt 0.818889 0.392489
vt 0.902707 0.392489
vt 0.502904 0.790097
vt 0.465186 0.790097
vt 0.801488 0.392489
vt 0.943745 0.292173
vt 0.751452 0.429097
vt 0.775247 0.411686
vt 0.201356 0.271626
vt 0.233771 0.271626
vt 0.967552 0.275822
vt 0.251452 0.321082
vt 0.325504 0.321082
vt 0.465186 0.543247
vt 0.502904 0.543247
vt 0.068395 0.321082
vt 0.457680 0.271626
vt 0.485232 0.271626
vt 0.000000 0.321082
vt 0.000000 0.543247
vt 0.032060 0.543247
vt 0.251452 0.543247
vt 0.289170 0.543247
vt 0.502904 0.000000
vt 0.470843 0.000000
vt 0.251452 0.000000
vt 0.213734 0.000000
vt 0.470843 0.543247
vt 0.502904 0.543247
vt 0.032060 0.000000
vt 0.000000 0.000000
vt 0.289170 0.000000
vt 0.251452 0.000000
vt 0.213734 0.543247
vt 0.251452 0.543247
vt 0.539169 0.244684
vt 0.551538 0.268530
vt 0.520265 0.268340
vt 0.503130 0.244609
vt 0.575504 0.319415
vt 0.503230 0.319416
vt 0.503130 0.295547
vt 0.539169 0.295473
vt 0.566420 0.587940
vt 0.503230 0.587940
vt 0.503130 0.564071
vt 0.539169 0.563997
vt 0.782061 0.030048
vt 0.751778 0.030048
vt 0.751452 0.000000
vt 0.782060 0.000320
vt 0.190689 0.763987
vt 0.248222 0.763987
vt 0.248322 0.787856
vt 0.217940 0.787930
vt 0.684509 0.220741
vt 0.751126 0.220740
vt 0.751226 0.244609
vt 0.720843 0.244684
vt 0.277863 0.790763
vt 0.295593 0.813544
vt 0.274857 0.813072
vt 0.251452 0.790097
vt 0.720843 0.295473
vt 0.707670 0.271626
vt 0.734081 0.271817
vt 0.751226 0.295547
vt 0.720843 0.563997
vt 0.707669 0.540156
vt 0.734080 0.540346
vt 0.751226 0.564071
vt 0.036266 0.787930
vt 0.048633 0.811771
vt 0.017361 0.811581
vt 0.000226 0.787856
vt 0.417333 0.976547
vt 0.398961 0.951544
vt 0.416021 0.951651
vt 0.441860 0.977019
vt 0.433995 0.999333
vt 0.465268 1.000000
vt 0.252131 0.969299
vt 0.275338 0.952940
vt 0.274857 0.977019
vt 0.251452 1.000000
vt 0.464589 0.816024
vt 0.441379 0.833428
vt 0.441860 0.813072
vt 0.465268 0.790097
vt 0.398961 0.852621
vt 0.398961 0.838543
vt 0.416021 0.838436
vt 0.415911 0.852621
vt 0.300804 0.934904
vt 0.300695 0.951651
vt 0.315144 0.838543
vt 0.300695 0.838436
vt 0.415911 0.934904
vt 0.441379 0.952940
vt 0.275338 0.833428
vt 0.300804 0.852621
vt 0.398961 0.934904
vt 0.464589 0.969299
vt 0.252131 0.816024
vt 0.204765 0.811771
vt 0.520264 0.540346
vt 0.551537 0.540156
vt 0.000326 0.763987
vt 0.063517 0.763987
vt 0.999674 0.030048
vt 0.963734 0.030048
vt 0.963734 0.000320
vt 1.000000 0.000000
vt 0.693592 0.587940
vt 0.751126 0.587940
vt 0.231177 0.811581
vt 0.963734 0.243680
vt 0.782060 0.243680
vt 0.782061 0.208398
vt 0.963734 0.208398
vt 0.315144 0.934904
vt 0.315144 0.852621
vt 1.000000 0.244000
vt 0.999674 0.208398
vt 0.315144 0.951544
vt 0.417333 0.813544
vt 0.277863 0.999333
vt 0.295593 0.976547
vt 0.520265 0.271817
vt 0.551538 0.271626
vt 0.433995 0.790763
vt 0.503230 0.220740
vt 0.575504 0.220741
vt 0.751452 0.244000
vt 0.751778 0.208398
vt 0.684508 0.319415
vt 0.707670 0.268530
vt 0.734081 0.268340
vt 0.751126 0.319416
vt 0.751452 0.540156
vt 0.720843 0.539836
vt 0.502904 0.000000
vt 0.539169 0.000321
vt 0.751452 0.808680
vt 0.720843 0.808360
vt 0.000000 0.543247
vt 0.036266 0.543567
vt 0.720843 0.000321
vt 0.751452 0.000000
vt 0.217940 0.543567
vt 0.248548 0.543247
vt 0.539170 0.808360
vt 0.502904 0.808680
vt 0.539169 0.539836
vt 0.502904 0.540156
vt 0.385687 0.548795
vt 0.385687 0.706830
vt 0.375000 0.718125
vt 0.375000 0.537500
vt 0.589313 0.551952
vt 0.600000 0.537500
vt 0.385687 0.201205
vt 0.589313 0.198048
vt 0.600000 0.212500
vt 0.375000 0.212500
vt 0.385687 0.043170
vt 0.375000 0.031875
vt 0.589313 0.046327
vt 0.600000 0.031875
vt 0.589313 0.703673
vt 0.600000 0.718125
vt 0.385687 0.299027
vt 0.385687 0.456598
vt 0.375000 0.468125
vt 0.375000 0.287500
vt 0.589313 0.304012
vt 0.600000 0.287500
vt 0.385687 0.950973
vt 0.589313 0.945988
vt 0.600000 0.962500
vt 0.375000 0.962500
vt 0.385687 0.793402
vt 0.375000 0.781875
vt 0.589313 0.798387
vt 0.600000 0.781875
vt 0.589313 0.451613
vt 0.600000 0.468125
vt 0.385687 0.548795
vt 0.375000 0.537500
vt 0.375000 0.718125
vt 0.385687 0.706830
vt 0.589313 0.551952
vt 0.600000 0.537500
vt 0.385687 0.201205
vt 0.375000 0.212500
vt 0.600000 0.212500
vt 0.589313 0.198048
vt 0.385687 0.043170
vt 0.375000 0.031875
vt 0.589313 0.046327
vt 0.600000 0.031875
vt 0.600000 0.718125
vt 0.589313 0.703673
vt 0.385687 0.299027
vt 0.375000 0.287500
vt 0.375000 0.468125
vt 0.385687 0.456598
vt 0.589313 0.304012
vt 0.600000 0.287500
vt 0.385687 0.950973
vt 0.375000 0.962500
vt 0.600000 0.962500
vt 0.589313 0.945988
vt 0.385687 0.793402
vt 0.375000 0.781875
vt 0.589313 0.798387
vt 0.600000 0.781875
vt 0.600000 0.468125
vt 0.589313 0.451613
vn 0.0000 0.6585 -0.7526
vn 0.0000 0.0000 1.0000
vn -1.0000 0.0000 0.0000
vn 0.0000 -1.0000 0.0000
vn 1.0000 0.0000 0.0000
vn 0.0000 0.0000 -1.0000
vn 0.0000 0.8498 0.5271
vn 0.0000 0.6585 0.7526
vn -0.7526 0.6585 0.0000
vn 0.7526 0.6585 0.0000
vn 0.0000 0.9572 -0.2893
vn 0.0000 0.8498 -0.5271
vn 0.5271 0.8498 0.0000
vn -0.5271 0.8498 0.0000
vn 0.0000 1.0000 0.0000
vn 0.2893 0.9572 0.0000
vn -0.2893 0.9572 0.0000
vn 0.0000 0.9572 0.2893
vn -0.0136 -0.6563 0.7544
vn -0.0134 -0.0070 -0.9999
vn 0.9999 -0.0048 -0.0147
vn 0.0139 0.9998 0.0139
vn -0.9998 -0.0061 0.0166
vn 0.0150 -0.0085 0.9999
vn 0.0091 -0.8465 -0.5323
vn 0.0161 -0.6550 -0.7554
vn 0.7554 -0.6550 0.0161
vn -0.7544 -0.6563 -0.0136
vn -0.0026 -0.9567 0.2912
vn -0.0076 -0.8472 0.5313
vn -0.5313 -0.8472 -0.0076
vn 0.5323 -0.8465 0.0091
vn -0.0011 -1.0000 0.0013
vn -0.2911 -0.9567 -0.0026
vn 0.2916 -0.9565 0.0031
vn 0.0031 -0.9565 -0.2916
vn 0.2911 -0.9567 -0.0026
vn -0.2897 -0.9571 0.0000
vn -0.0011 -1.0000 -0.0011
vn 0.5313 -0.8472 -0.0076
vn -0.5270 -0.8498 0.0000
vn -0.7505 -0.6609 0.0000
vn 0.7544 -0.6563 -0.0136
vn -0.9999 -0.0048 -0.0147
vn 0.0139 0.9998 -0.0117
vn 1.0000 0.0060 0.0000
vn 0.9998 -0.0061 0.0166
vn -0.7554 -0.6550 0.0161
vn -0.5323 -0.8465 0.0091
vn -0.2916 -0.9565 0.0031
vn 0.2897 -0.9571 0.0000
vn -0.0019 -1.0000 0.0000
vn 0.5270 -0.8498 0.0000
vn 0.7505 -0.6609 0.0000
vn -1.0000 0.0060 0.0000
vn 0.0195 0.9998 0.0000
vn -0.0164 0.9999 0.0000
vn -0.0117 0.9999 -0.0117
vn 0.0000 -1.0000 -0.0019
vn -0.0026 -0.9567 -0.2911
vn 0.0000 -1.0000 0.0023
vn 0.0000 -0.8498 0.5270
vn 0.0000 -0.9571 0.2897
vn -0.0136 -0.6563 -0.7544
vn -0.0076 -0.8472 -0.5313
vn -0.0134 -0.0070 0.9999
vn -0.0117 0.9998 0.0139
vn 0.0000 0.0060 -1.0000
vn 0.0000 -0.6609 0.7505
vn 0.0161 -0.6550 0.7554
vn 0.0150 -0.0085 -0.9999
vn 0.0031 -0.9565 0.2916
vn 0.0091 -0.8465 0.5323
vn 0.0013 -1.0000 0.0013
vn 0.0013 -1.0000 -0.0011
vn 0.0023 -1.0000 0.0000
vn 0.0000 0.9999 -0.0164
vn 0.0000 -0.9571 -0.2897
vn 0.0000 -0.6609 -0.7505
vn 0.0000 -0.8498 -0.5270
vn 0.0000 0.0060 1.0000
vn 0.0000 0.9998 0.0195
vn 0.0109 -0.0018 -0.9999
vn -0.0098 -0.0020 1.0000
vn 0.9999 -0.0020 0.0121
vn -0.9999 -0.0021 -0.0107
vn 0.0109 -0.0018 0.9999
vn -0.9999 -0.0020 0.0121
vn 0.9999 -0.0021 -0.0107
vn -0.0098 -0.0020 -1.0000
vn -0.9948 -0.1021 0.0000
vn -0.9994 0.0030 -0.0338
vn 0.9994 0.0030 -0.0338
vn 0.9948 -0.1021 0.0000
vn 0.9994 0.0030 0.0338
vn -0.9994 0.0030 0.0338
vn 0.0000 -0.1021 0.9948
vn -0.0335 0.0046 0.9994
vn -0.0335 0.0046 -0.9994
vn 0.0000 -0.1021 -0.9948
vn 0.0335 0.0046 -0.9994
vn 0.0335 0.0046 0.9994
vn 0.0000 -0.1488 0.9889
vn 0.0000 -0.1488 -0.9889
vn 0.9804 -0.1968 0.0000
vn -0.9804 -0.1968 0.0000
usemtl Брезент_БМ1
s off
f 44/1/1 5/2/1 12/3/1 46/4/1
f 92/5/2 42/6/2 7/7/2 70/8/2
f 84/9/3 23/10/3 5/11/3 72/12/3
f 68/13/4 81/14/4 4/15/4 94/16/4
f 88/17/5 32/18/5 3/19/5 71/20/5
f 96/21/6 56/22/6 1/23/6 69/24/6
f 64/25/7 9/26/7 13/27/7 65/28/7
f 63/29/8 3/30/8 9/31/8 64/32/8
f 36/33/9 7/34/9 10/35/9 38/36/9
f 22/37/10 1/38/10 11/39/10 25/40/10
f 48/41/11 16/42/11 20/43/11 50/44/11
f 46/45/12 12/46/12 16/42/12 48/41/12
f 25/47/13 11/48/13 15/49/13 27/50/13
f 38/51/14 10/52/14 14/53/14 39/54/14
f 53/55/15 40/56/15 18/57/15 49/58/15
f 27/50/16 15/49/16 19/59/16 29/60/16
f 39/54/17 14/53/17 18/57/17 40/56/17
f 65/28/18 13/27/18 17/61/18 66/62/18
f 16/42/17 28/63/17 30/64/17 20/43/17
f 34/65/16 27/50/16 29/60/16 35/66/16
f 50/44/15 20/43/15 30/64/15 51/67/15
f 12/46/14 26/68/14 28/63/14 16/42/14
f 33/69/13 25/47/13 27/50/13 34/65/13
f 32/18/10 22/37/10 25/40/10 33/70/10
f 5/11/9 23/10/9 26/71/9 12/3/9
f 69/72/5 1/38/5 22/37/5 83/73/5
f 89/74/4 2/75/4 82/76/4 67/77/4
f 87/78/3 36/33/3 23/10/3 84/9/3
f 70/79/3 7/34/3 36/33/3 87/78/3
f 3/19/10 32/18/10 33/70/10 9/31/10
f 9/26/13 33/69/13 34/65/13 13/27/13
f 13/27/16 34/65/16 35/66/16 17/61/16
f 28/63/17 39/54/17 40/56/17 30/64/17
f 51/67/15 30/64/15 40/56/15 53/55/15
f 26/68/14 38/51/14 39/54/14 28/63/14
f 23/10/9 36/33/9 38/36/9 26/71/9
f 83/73/5 22/37/5 32/18/5 88/17/5
f 67/77/4 82/76/4 81/14/4 68/13/4
f 85/80/4 52/81/4 54/82/4 86/83/4
f 60/84/15 51/67/15 53/55/15 61/85/15
f 6/86/4 90/87/4 52/81/4 85/80/4
f 59/88/15 50/44/15 51/67/15 60/84/15
f 14/53/18 47/89/18 49/58/18 18/57/18
f 61/85/15 53/55/15 49/58/15 66/62/15
f 57/90/12 46/45/12 48/41/12 58/91/12
f 58/91/11 48/41/11 50/44/11 59/88/11
f 7/7/8 42/6/8 45/92/8 10/93/8
f 10/52/7 45/94/7 47/89/7 14/53/7
f 72/95/6 5/2/6 44/1/6 91/96/6
f 86/83/4 54/82/4 93/97/4 8/98/4
f 95/99/2 63/29/2 42/6/2 92/5/2
f 56/22/1 44/1/1 46/4/1 57/100/1
f 1/23/1 56/22/1 57/100/1 11/101/1
f 71/102/2 3/30/2 63/29/2 95/99/2
f 15/49/11 58/91/11 59/88/11 19/59/11
f 11/48/12 57/90/12 58/91/12 15/49/12
f 35/66/15 61/85/15 66/62/15 17/61/15
f 19/59/15 59/88/15 60/84/15 29/60/15
f 29/60/15 60/84/15 61/85/15 35/66/15
f 52/81/4 67/77/4 68/13/4 54/82/4
f 90/87/4 89/74/4 67/77/4 52/81/4
f 47/89/18 65/28/18 66/62/18 49/58/18
f 42/6/8 63/29/8 64/32/8 45/92/8
f 45/94/7 64/25/7 65/28/7 47/89/7
f 91/96/6 44/1/6 56/22/6 96/21/6
f 54/82/4 68/13/4 94/16/4 93/97/4
f 4/103/2 71/102/2 95/99/2 94/104/2
f 6/105/6 72/95/6 91/96/6 90/106/6
f 8/107/3 70/79/3 87/78/3 86/108/3
f 2/109/5 69/72/5 83/73/5 82/110/5
f 89/111/6 96/21/6 69/24/6 2/112/6
f 81/113/5 88/17/5 71/20/5 4/114/5
f 85/115/3 84/9/3 72/12/3 6/116/3
f 93/117/2 92/5/2 70/8/2 8/118/2
f 140/119/19 142/120/19 108/121/19 101/122/19
f 188/123/20 166/124/20 103/125/20 138/126/20
f 180/127/21 168/128/21 101/129/21 119/130/21
f 164/131/22 190/132/22 100/133/22 177/134/22
f 184/135/23 167/136/23 99/137/23 128/138/23
f 192/139/24 165/140/24 97/141/24 152/142/24
f 160/143/25 161/144/25 109/145/25 105/146/25
f 159/147/26 160/148/26 105/149/26 99/150/26
f 132/151/27 134/152/27 106/153/27 103/154/27
f 118/155/28 121/156/28 107/157/28 97/158/28
f 144/159/29 146/160/29 116/161/29 112/162/29
f 142/163/30 144/159/30 112/162/30 108/164/30
f 121/165/31 123/166/31 111/167/31 107/168/31
f 134/169/32 135/170/32 110/171/32 106/172/32
f 149/173/33 145/174/33 114/175/33 136/176/33
f 123/166/34 125/177/34 115/178/34 111/167/34
f 135/170/35 136/176/35 114/175/35 110/171/35
f 161/144/36 162/179/36 113/180/36 109/145/36
f 112/162/37 116/161/37 126/181/37 124/182/37
f 130/183/38 131/184/38 125/177/38 123/166/38
f 146/160/39 147/185/39 126/181/39 116/161/39
f 108/164/40 112/162/40 124/182/40 122/186/40
f 129/187/41 130/183/41 123/166/41 121/165/41
f 128/138/42 129/188/42 121/156/42 118/155/42
f 101/129/43 108/189/43 122/190/43 119/130/43
f 165/191/44 179/192/44 118/155/44 97/158/44
f 185/193/45 163/194/45 178/195/45 98/196/45
f 183/197/46 180/127/46 119/130/46 132/151/46
f 166/198/47 183/197/47 132/151/47 103/154/47
f 99/137/48 105/199/48 129/188/48 128/138/48
f 105/146/49 109/145/49 130/183/49 129/187/49
f 109/145/50 113/180/50 131/184/50 130/183/50
f 124/182/51 126/181/51 136/176/51 135/170/51
f 147/185/52 149/173/52 136/176/52 126/181/52
f 122/186/53 124/182/53 135/170/53 134/169/53
f 119/130/54 122/190/54 134/152/54 132/151/54
f 179/192/55 184/135/55 128/138/55 118/155/55
f 163/194/56 164/131/56 177/134/56 178/195/56
f 181/200/57 182/201/57 150/202/57 148/203/57
f 156/204/4 157/205/4 149/173/4 147/185/4
f 102/206/58 181/200/58 148/203/58 186/207/58
f 155/208/59 156/204/59 147/185/59 146/160/59
f 110/171/60 114/175/60 145/174/60 143/209/60
f 157/205/61 162/179/61 145/174/61 149/173/61
f 153/210/62 154/211/62 144/159/62 142/163/62
f 154/211/63 155/208/63 146/160/63 144/159/63
f 103/125/64 106/212/64 141/213/64 138/126/64
f 106/172/65 110/171/65 143/209/65 141/214/65
f 168/215/66 187/216/66 140/119/66 101/122/66
f 182/201/67 104/217/67 189/218/67 150/202/67
f 191/219/68 188/123/68 138/126/68 159/147/68
f 152/142/69 153/220/69 142/120/69 140/119/69
f 97/141/70 107/221/70 153/220/70 152/142/70
f 167/222/71 191/219/71 159/147/71 99/150/71
f 111/167/72 115/178/72 155/208/72 154/211/72
f 107/168/73 111/167/73 154/211/73 153/210/73
f 131/184/74 113/180/74 162/179/74 157/205/74
f 115/178/75 125/177/75 156/204/75 155/208/75
f 125/177/76 131/184/76 157/205/76 156/204/76
f 148/203/15 150/202/15 164/131/15 163/194/15
f 186/207/77 148/203/77 163/194/77 185/193/77
f 143/209/78 145/174/78 162/179/78 161/144/78
f 138/126/79 141/213/79 160/148/79 159/147/79
f 141/214/80 143/209/80 161/144/80 160/143/80
f 187/216/81 192/139/81 152/142/81 140/119/81
f 150/202/82 189/218/82 190/132/82 164/131/82
f 100/223/83 190/224/83 191/219/83 167/222/83
f 102/225/84 186/226/84 187/216/84 168/215/84
f 104/227/85 182/228/85 183/197/85 166/198/85
f 98/229/86 178/230/86 179/192/86 165/191/86
f 185/231/87 98/232/87 165/140/87 192/139/87
f 177/233/88 100/234/88 167/136/88 184/135/88
f 181/235/89 102/236/89 168/128/89 180/127/89
f 189/237/90 104/238/90 166/124/90 188/123/90
usemtl Брезент_БМ2
f 24/239/5 37/240/5 81/241/5 82/242/5
f 73/243/5 24/239/5 82/242/5 83/244/5
f 21/245/3 74/246/3 84/247/3 85/248/3
f 31/249/3 21/245/3 85/248/3 86/250/3
f 75/251/3 31/249/3 86/250/3 87/252/3
f 37/240/5 76/253/5 88/254/5 81/241/5
f 41/255/6 62/256/6 89/257/6 90/258/6
f 77/259/6 41/255/6 90/258/6 91/260/6
f 43/261/2 78/262/2 92/263/2 93/264/2
f 55/265/2 43/261/2 93/264/2 94/266/2
f 79/267/2 55/265/2 94/266/2 95/268/2
f 62/256/6 80/269/6 96/270/6 89/257/6
f 80/269/6 77/259/6 91/260/6 96/270/6
f 78/262/2 79/267/2 95/268/2 92/263/2
f 76/253/5 73/243/5 83/244/5 88/254/5
f 74/246/3 75/251/3 87/252/3 84/247/3
f 120/271/91 178/272/91 177/273/91 133/274/91
f 169/275/92 179/276/92 178/272/92 120/271/92
f 117/277/93 181/278/93 180/279/93 170/280/93
f 127/281/94 182/282/94 181/278/94 117/277/94
f 171/283/95 183/284/95 182/282/95 127/281/95
f 133/274/96 177/273/96 184/285/96 172/286/96
f 137/287/97 186/288/97 185/289/97 158/290/97
f 173/291/98 187/292/98 186/288/98 137/287/98
f 139/293/99 189/294/99 188/295/99 174/296/99
f 151/297/100 190/298/100 189/294/100 139/293/100
f 175/299/101 191/300/101 190/298/101 151/297/101
f 158/290/102 185/289/102 192/301/102 176/302/102
f 176/302/2 192/301/2 187/292/2 173/291/2
f 174/296/6 188/295/6 191/300/6 175/299/6
f 172/286/3 184/285/3 179/276/3 169/275/3
f 170/280/5 180/279/5 183/284/5 171/283/5
f 37/240/15 24/239/15 120/271/15 133/274/15
f 24/239/103 73/243/103 169/275/103 120/271/103
f 74/246/103 21/245/103 117/277/103 170/280/103
f 21/245/15 31/249/15 127/281/15 117/277/15
f 31/249/104 75/251/104 171/283/104 127/281/104
f 76/253/104 37/240/104 133/274/104 172/286/104
f 62/256/15 41/255/15 137/287/15 158/290/15
f 41/255/105 77/259/105 173/291/105 137/287/105
f 78/262/105 43/261/105 139/293/105 174/296/105
f 43/261/15 55/265/15 151/297/15 139/293/15
f 55/265/106 79/267/106 175/299/106 151/297/106
f 80/269/106 62/256/106 158/290/106 176/302/106
f 77/259/4 80/269/4 176/302/4 173/291/4
f 79/267/4 78/262/4 174/296/4 175/299/4
f 73/243/4 76/253/4 172/286/4 169/275/4
f 75/251/4 74/246/4 170/280/4 171/283/4
