# Blender v2.83.12 OBJ File: 'ШП1 Соединение ШП5.blend'
# www.blender.org
mtllib ШП1 Соединение ШП5.mtl
o Cube
v 3.000000 2.000000 -2.100000
v 3.000000 0.000000 -3.000000
v 3.000000 2.000000 2.100000
v 3.000000 0.000000 3.000000
v -3.000000 2.000000 -2.100000
v -3.000000 0.000000 -3.000000
v -3.000000 2.000000 2.100000
v -3.000000 0.000000 3.000000
v 3.000000 1.000000 -2.700000
v -3.000000 1.000000 2.700000
v 3.000000 1.000000 2.700000
v -3.000000 1.000000 -2.700000
v 3.000000 2.483252 1.470000
v -3.000000 2.483252 1.470000
v 3.000000 2.483252 -1.470000
v -3.000000 2.483252 -1.470000
v 3.000000 2.900296 0.441000
v -3.000000 2.900296 0.441000
v 3.000000 2.900296 -0.441000
v -3.000000 2.900296 -0.441000
v 3.000000 1.994020 -2.042747
v 3.000000 0.013420 -2.955513
v 3.000000 1.994020 2.042747
v 3.000000 0.013420 2.955513
v -3.000000 1.994020 -2.042747
v -3.000000 0.013420 -2.955513
v -3.000000 1.994020 2.042747
v -3.000000 0.013420 2.955513
v 3.000000 0.997040 -2.640661
v -3.000000 0.997040 2.640661
v 3.000000 0.997040 2.640661
v -3.000000 0.997040 -2.640661
v 3.000000 2.472813 1.418822
v -3.000000 2.472813 1.418822
v 3.000000 2.472813 -1.418822
v -3.000000 2.472813 -1.418822
v 3.000000 2.882212 0.415377
v -3.000000 2.882212 0.415377
v 3.000000 2.882212 -0.415377
v -3.000000 2.882212 -0.415377
v -3.472216 0.000000 -3.000000
v -3.472216 0.000000 3.000000
v -4.032295 1.000000 2.700000
v -4.478039 2.000000 2.100000
v -4.032295 1.000000 -2.700000
v -4.478039 2.000000 -2.100000
v -4.664336 2.483252 1.470000
v -4.664336 2.483252 -1.470000
v -4.664336 2.900296 0.441000
v -4.664336 2.900296 -0.441000
v -3.472216 0.013420 -2.955513
v -3.472216 0.013420 2.955513
v -4.032295 0.997040 2.640661
v -4.478039 1.994020 2.042747
v -4.032295 0.997040 -2.640661
v -4.478039 1.994020 -2.042747
v -4.664336 2.472813 1.418822
v -4.664336 2.472813 -1.418822
v -4.664336 2.882212 0.415377
v -4.664336 2.882212 -0.415377
vt 0.345075 0.239635
vt 0.345075 0.113504
vt 0.615215 0.113504
vt 0.615215 0.239635
vt 0.000000 0.980142
vt 0.000000 0.727823
vt 0.270140 0.727823
vt 0.270140 0.980142
vt 0.074934 0.239635
vt 0.074934 0.113504
vt 0.345074 0.113504
vt 0.345075 0.239635
vt 0.074934 0.365781
vt 0.345075 0.365781
vt 0.345075 0.365781
vt 0.615215 0.365781
vt 0.074934 0.052566
vt 0.345074 0.052566
vt 0.345075 0.052566
vt 0.615215 0.052566
vt 1.000000 0.000000
vt 1.000000 0.252319
vt 0.960289 0.252319
vt 0.960289 0.000000
vt 0.345075 0.000000
vt 0.615215 0.000000
vt 0.074934 0.000000
vt 0.345074 0.000000
vt 0.690149 0.603716
vt 0.420009 0.603716
vt 0.420009 0.477910
vt 0.690149 0.477910
vt 0.536275 0.980142
vt 0.270140 0.980142
vt 0.270140 0.727823
vt 0.536275 0.727823
vt 0.270140 0.603716
vt 0.000000 0.603716
vt 0.000000 0.477910
vt 0.270140 0.477910
vt 0.270140 0.727823
vt 0.000000 0.727823
vt 0.690149 0.727823
vt 0.420009 0.727823
vt 0.000000 0.417477
vt 0.270140 0.417477
vt 0.420009 0.417477
vt 0.690149 0.417477
vt 0.960289 0.322309
vt 0.997693 0.322309
vt 0.997693 0.574628
vt 0.960289 0.574628
vt 0.420009 0.365781
vt 0.690149 0.365781
vt 0.000000 0.365781
vt 0.270140 0.365781
vt 0.270140 1.000000
vt 0.000000 1.000000
vt 0.690149 0.734791
vt 0.703656 0.608631
vt 0.706328 0.609005
vt 0.692152 0.733097
vt 0.336687 0.477910
vt 0.316618 0.603716
vt 0.946782 0.608631
vt 0.960289 0.734790
vt 0.958286 0.733097
vt 0.944111 0.609004
vt 0.028457 0.239636
vt 0.008388 0.113504
vt 0.730670 0.482472
vt 0.733248 0.483226
vt 0.291401 0.727823
vt 0.919768 0.482472
vt 0.917190 0.483226
vt 0.345074 0.365781
vt 0.345074 0.417477
vt 0.053673 0.365781
vt 0.000000 0.052566
vt 0.000000 0.000000
vt 0.759035 0.421505
vt 0.761339 0.422822
vt 0.891403 0.421505
vt 0.889099 0.422822
vt 0.805364 0.368891
vt 0.845074 0.368891
vt 0.843921 0.371173
vt 0.806517 0.371173
vt 0.345075 0.417477
vt 0.345075 0.365781
vt 0.960289 0.368891
vt 0.690149 0.368891
vt 0.692152 0.367205
vt 0.958286 0.367205
vt 0.703656 0.241149
vt 0.730670 0.113830
vt 0.733248 0.114581
vt 0.706328 0.241521
vt 0.946782 0.241149
vt 0.944111 0.241521
vt 0.919768 0.113830
vt 0.917190 0.114581
vt 0.759035 0.052410
vt 0.761339 0.053722
vt 0.891403 0.052410
vt 0.889099 0.053722
vt 0.805364 0.000000
vt 0.845074 0.000000
vt 0.843921 0.002273
vt 0.806517 0.002273
vt 0.536275 1.000000
vt 0.270140 1.000000
vt 1.000000 0.322309
vt 0.960289 0.322309
vt 0.997693 0.644618
vt 0.960289 0.644618
vt 0.681761 0.113504
vt 0.661692 0.239635
vt 0.690149 0.052566
vt 0.373531 0.603716
vt 0.353462 0.477910
vt 0.636476 0.365781
vt 0.690149 0.000000
vt 0.398748 0.727823
vn 0.0000 0.5145 0.8575
vn 0.0000 -1.0000 0.0000
vn 0.0000 0.5145 -0.8575
vn 0.0000 0.2873 -0.9578
vn 0.0000 0.2873 0.9578
vn 0.0000 0.7935 -0.6086
vn 0.0000 0.7935 0.6086
vn 0.0000 1.0000 0.0000
vn 0.0000 0.9268 0.3756
vn 0.0000 0.9268 -0.3756
vn 0.0000 -0.5143 -0.8576
vn 0.0000 -0.5143 0.8576
vn 0.0000 -0.3049 0.9524
vn 0.0000 -0.3049 -0.9524
vn 0.0000 -0.7933 0.6088
vn 0.0000 -0.7933 -0.6088
vn 0.0000 -0.9259 -0.3778
vn 0.0000 -0.9259 0.3778
vn 1.0000 0.0000 0.0000
vn -1.0000 -0.0000 0.0000
vn -0.9193 -0.3924 0.0301
vn -0.8628 -0.5030 0.0507
vn -0.8628 -0.5029 -0.0507
vn -0.9193 -0.3924 -0.0301
vn -0.9504 -0.3074 0.0466
vn -0.9504 -0.3074 -0.0466
usemtl Брезент_БМ1
s off
f 11/1/1 3/2/1 7/3/1 10/4/1
f 6/5/2 2/6/2 4/7/2 8/8/2
f 12/9/3 5/10/3 1/11/3 9/12/3
f 6/13/4 12/9/4 9/12/4 2/14/4
f 4/15/5 11/1/5 10/4/5 8/16/5
f 1/11/6 5/10/6 16/17/6 15/18/6
f 7/3/7 3/2/7 13/19/7 14/20/7
f 19/21/8 20/22/8 18/23/8 17/24/8
f 14/20/9 13/19/9 17/25/9 18/26/9
f 15/18/10 16/17/10 20/27/10 19/28/10
f 31/29/11 30/30/11 27/31/11 23/32/11
f 26/33/8 28/34/8 24/35/8 22/36/8
f 32/37/12 29/38/12 21/39/12 25/40/12
f 26/41/13 22/42/13 29/38/13 32/37/13
f 24/43/14 28/44/14 30/30/14 31/29/14
f 21/39/15 35/45/15 36/46/15 25/40/15
f 27/31/16 34/47/16 33/48/16 23/32/16
f 39/49/2 37/50/2 38/51/2 40/52/2
f 34/47/17 38/53/17 37/54/17 33/48/17
f 35/45/18 39/55/18 40/56/18 36/46/18
f 6/5/2 8/8/2 42/57/2 41/58/2
f 2/59/19 9/60/19 29/61/19 22/62/19
f 32/37/12 25/40/12 56/63/12 55/64/12
f 11/65/19 4/66/19 24/67/19 31/68/19
f 5/10/3 12/9/3 45/69/3 46/70/3
f 4/66/19 2/59/19 22/62/19 24/67/19
f 9/60/19 1/71/19 21/72/19 29/61/19
f 26/41/13 32/37/13 55/64/13 51/73/13
f 3/74/19 11/65/19 31/68/19 23/75/19
f 36/46/18 40/56/18 60/76/18 58/77/18
f 12/9/4 6/13/4 41/78/4 45/69/4
f 20/27/10 16/17/10 48/79/10 50/80/10
f 1/71/19 15/81/19 35/82/19 21/72/19
f 13/83/19 3/74/19 23/75/19 33/84/19
f 19/85/19 17/86/19 37/87/19 39/88/19
f 25/40/15 36/46/15 58/77/15 56/63/15
f 16/17/6 5/10/6 46/70/6 48/79/6
f 38/53/17 34/47/17 57/89/17 59/90/17
f 17/86/19 13/83/19 33/84/19 37/87/19
f 15/81/19 19/85/19 39/88/19 35/82/19
f 41/91/20 42/92/20 52/93/20 51/94/20
f 43/95/21 44/96/21 54/97/21 53/98/21
f 45/99/22 41/91/22 51/94/22 55/100/22
f 42/92/23 43/95/23 53/98/23 52/93/23
f 46/101/24 45/99/24 55/100/24 56/102/24
f 44/96/25 47/103/25 57/104/25 54/97/25
f 48/105/26 46/101/26 56/102/26 58/106/26
f 49/107/20 50/108/20 60/109/20 59/110/20
f 47/103/20 49/107/20 59/110/20 57/104/20
f 50/108/20 48/105/20 58/106/20 60/109/20
f 28/34/8 26/33/8 51/111/8 52/112/8
f 18/23/8 20/22/8 50/113/8 49/114/8
f 40/52/2 38/51/2 59/115/2 60/116/2
f 10/4/1 7/3/1 44/117/1 43/118/1
f 7/3/7 14/20/7 47/119/7 44/117/7
f 27/31/11 30/30/11 53/120/11 54/121/11
f 34/47/16 27/31/16 54/121/16 57/89/16
f 8/16/5 10/4/5 43/118/5 42/122/5
f 14/20/9 18/26/9 49/123/9 47/119/9
f 30/30/14 28/44/14 52/124/14 53/120/14
