# Blender v2.83.12 OBJ File: 'ШП2.blend'
# www.blender.org
mtllib ШП2.mtl
o Cube
v 3.350261 2.000000 -2.100000
v 3.968513 0.000000 -3.000000
v 3.350261 2.000000 2.100000
v 3.968513 0.000000 3.000000
v -3.000000 2.000000 -2.100000
v -3.000000 0.000000 -3.000000
v -3.000000 2.000000 2.100000
v -3.000000 0.000000 3.000000
v 3.663824 1.000000 -2.700000
v -3.000000 1.000000 2.700000
v 3.663824 1.000000 2.700000
v -3.000000 1.000000 -2.700000
v 3.164245 2.483252 1.470000
v -3.000000 2.483252 1.470000
v 3.164245 2.483252 -1.470000
v -3.000000 2.483252 -1.470000
v 3.000000 2.900296 0.441000
v -3.000000 2.900296 0.441000
v 3.000000 2.900296 -0.441000
v -3.000000 2.900296 -0.441000
v -3.000000 0.000000 -1.800000
v -3.000000 0.000000 -0.600000
v -3.000000 0.000000 0.600000
v -3.000000 0.000000 1.800000
v 3.350261 2.000000 -1.260000
v 3.355666 1.957108 -0.370030
v 3.355666 1.957108 0.370030
v 3.350261 2.000000 1.260000
v 3.968513 0.000000 1.800000
v 3.963259 0.042888 0.546958
v 3.963259 0.042888 -0.546958
v 3.968513 0.000000 -1.800000
v 3.663824 1.000000 -1.620000
v 3.663984 0.999495 -0.488024
v 3.663824 1.000000 0.540000
v 3.663824 1.000000 1.620000
v 3.164245 2.483252 -0.882000
v 3.164245 2.483252 -0.294000
v 3.164245 2.483252 0.294000
v 3.164245 2.483252 0.882000
v 3.000000 2.900296 -0.264600
v 3.000000 2.900296 -0.088200
v 3.000000 2.900296 0.088200
v 3.000000 2.900296 0.264600
v -3.000000 2.900296 0.264600
v -3.000000 2.900296 0.088200
v -3.000000 2.900296 -0.088200
v -3.000000 2.900296 -0.264600
v 3.350261 2.000000 -0.420000
v 3.350261 2.000000 0.420000
v 3.968513 0.000000 0.600000
v 3.968513 0.000000 -0.600000
v 3.663824 1.000000 -0.540000
v 3.663984 0.999495 0.488024
v 3.310028 1.994293 -2.058915
v 3.932381 0.010495 -2.963902
v 3.310028 1.994293 2.058915
v 3.932381 0.010495 2.963902
v -3.000000 1.994020 -2.042747
v -3.000000 0.013420 -2.955513
v -3.000000 1.994020 2.042747
v -3.000000 0.013420 2.955513
v 3.622560 0.996521 -2.657714
v -3.000000 0.997040 2.640661
v 3.622560 0.996521 2.657714
v -3.000000 0.997040 -2.640661
v 3.125310 2.474236 1.433226
v -3.000000 2.472813 1.418822
v 3.125310 2.474236 -1.433226
v -3.000000 2.472813 -1.418822
v 2.965626 2.885299 0.421149
v -3.000000 2.882212 0.415377
v 2.965626 2.885299 -0.421149
v -3.000000 2.882212 -0.415377
v -3.000000 0.020000 -1.800000
v -3.000000 0.020000 -0.600000
v -3.000000 0.020000 0.600000
v -3.000000 0.020000 1.800000
v 3.290664 1.997688 -1.260000
v 3.295906 1.955566 -0.372698
v 3.295906 1.955566 0.372698
v 3.290664 1.997688 1.260000
v 3.923995 0.013409 1.800000
v 3.903502 0.041336 0.544241
v 3.903502 0.041336 -0.544241
v 3.923995 0.013409 -1.800000
v 3.604141 0.997950 -1.620000
v 3.604305 0.997434 -0.487991
v 3.604143 0.997944 0.539982
v 3.604141 0.997950 1.620000
v 3.104745 2.480678 -0.882000
v 3.104745 2.480678 -0.294000
v 3.104745 2.480678 0.294000
v 3.104745 2.480678 0.882000
v 2.960432 2.885262 -0.264600
v 2.960432 2.885262 -0.088200
v 2.960432 2.885262 0.088200
v 2.960432 2.885262 0.264600
v -3.000000 2.880296 0.264600
v -3.000000 2.880296 0.088200
v -3.000000 2.880296 -0.088200
v -3.000000 2.880296 -0.264600
v 3.290587 1.997926 -0.420300
v 3.290587 1.997926 0.420300
v 3.924432 0.013567 0.599592
v 3.924432 0.013567 -0.599592
v 3.604143 0.997944 -0.539982
v 3.604305 0.997434 0.487991
vt 0.011799 0.234588
vt 0.023929 0.111121
vt 0.270134 0.111120
vt 0.270161 0.234588
vt 0.046525 0.713161
vt 0.046525 1.000000
vt 0.000000 1.000000
vt 0.000000 0.713161
vt 0.716670 0.594311
vt 0.702713 0.470162
vt 0.735280 0.470162
vt 0.758543 0.594311
vt 0.270189 0.234588
vt 0.270216 0.111121
vt 0.516421 0.111120
vt 0.528551 0.234588
vt 0.270175 0.358064
vt 0.540350 0.358064
vt 0.723649 0.718417
vt 0.770174 0.718417
vt 0.000000 0.358064
vt 0.270175 0.358064
vt 0.605010 0.470162
vt 0.572443 0.470162
vt 0.596868 0.410001
vt 0.619665 0.410001
vt 0.270244 0.051466
vt 0.509237 0.051466
vt 0.031113 0.051466
vt 0.270106 0.051466
vt 0.800332 0.246973
vt 0.800332 0.000000
vt 0.807171 0.000000
vt 0.807171 0.246973
vt 0.037435 0.000000
vt 0.270060 0.000000
vt 0.270290 0.000000
vt 0.502915 0.000000
vt 0.636763 0.358064
vt 0.643603 0.358064
vt 0.710854 0.410001
vt 0.688057 0.410001
vt 0.664120 0.358064
vt 0.670959 0.358064
vt 0.665260 0.410001
vt 0.657281 0.358064
vt 0.642463 0.410001
vt 0.650442 0.358064
vt 0.772975 0.246973
vt 0.772975 0.000000
vt 0.779814 0.000000
vt 0.779814 0.246973
vt 0.786654 0.000000
vt 0.786654 0.246973
vt 0.793493 0.000000
vt 0.793493 0.246973
vt 0.670145 0.470162
vt 0.637578 0.470162
vt 0.537549 0.718417
vt 0.549180 0.594311
vt 0.591053 0.594311
vt 0.584074 0.718417
vt 0.632925 0.594311
vt 0.630599 0.718417
vt 0.677124 0.718417
vt 0.674798 0.594311
vt 0.232625 0.713161
vt 0.232625 1.000000
vt 0.186100 1.000000
vt 0.186100 0.713161
vt 0.139575 1.000000
vt 0.139575 0.713161
vt 0.093050 1.000000
vt 0.093050 0.713161
vt 0.280761 0.479840
vt 0.537524 0.479998
vt 0.537511 0.603131
vt 0.292865 0.603075
vt 0.417326 0.713161
vt 0.462126 0.713162
vt 0.462451 0.998514
vt 0.417326 0.998169
vt 0.822278 0.592239
vt 0.782045 0.592458
vt 0.805261 0.468720
vt 0.836236 0.468257
vt 0.268749 0.591228
vt 0.011987 0.591385
vt 0.024091 0.468150
vt 0.268737 0.468095
vt 0.268774 0.712702
vt 0.000000 0.713161
vt 0.815299 0.714363
vt 0.770174 0.714741
vt 0.268774 0.358064
vt 0.537549 0.358523
vt 0.933938 0.468257
vt 0.919283 0.408279
vt 0.940654 0.409121
vt 0.964913 0.468720
vt 0.031262 0.408860
vt 0.268746 0.408950
vt 0.537520 0.662276
vt 0.300036 0.662365
vt 0.833758 0.000214
vt 0.839828 0.000000
vt 0.839604 0.245559
vt 0.833758 0.245559
vt 0.537549 0.712864
vt 0.306256 0.713161
vt 0.037482 0.358064
vt 0.268774 0.358362
vt 0.895346 0.358064
vt 0.901415 0.358072
vt 0.829520 0.409121
vt 0.868759 0.358072
vt 0.874828 0.358064
vt 0.850891 0.408279
vt 0.881667 0.358064
vt 0.873688 0.408279
vt 0.888507 0.358064
vt 0.896486 0.408279
vt 0.807171 0.000000
vt 0.813241 0.000214
vt 0.813240 0.245559
vt 0.807395 0.245559
vt 0.820080 0.000214
vt 0.820080 0.245559
vt 0.826919 0.000214
vt 0.826919 0.245559
vt 0.868792 0.468227
vt 0.901382 0.468227
vt 1.000000 0.714741
vt 0.954875 0.714363
vt 0.947896 0.592239
vt 0.988129 0.592458
vt 0.908334 0.714344
vt 0.906023 0.592240
vt 0.861840 0.714344
vt 0.864151 0.592240
vt 0.232950 0.713162
vt 0.277751 0.713161
vt 0.277751 0.998169
vt 0.232625 0.998514
vt 0.324276 0.713161
vt 0.324292 0.998187
vt 0.370801 0.713161
vt 0.370785 0.998187
vt 0.586875 0.357588
vt 0.540350 0.357588
vt 0.542075 0.355933
vt 0.586875 0.355122
vt 0.551981 0.234294
vt 0.575244 0.111001
vt 0.577464 0.111738
vt 0.554282 0.234659
vt 0.761344 0.234294
vt 0.772975 0.357588
vt 0.771250 0.355933
vt 0.759043 0.234659
vt 0.738081 0.111001
vt 0.735862 0.111738
vt 0.599669 0.051419
vt 0.601654 0.052706
vt 0.713656 0.051419
vt 0.711672 0.052706
vt 0.666921 0.000000
vt 0.673761 0.000000
vt 0.672767 0.002230
vt 0.666921 0.002466
vt 0.639565 0.000000
vt 0.640558 0.002230
vt 0.726450 0.357588
vt 0.726450 0.355122
vt 0.679925 0.357588
vt 0.679925 0.355122
vt 0.633400 0.357588
vt 0.633400 0.355122
vt 0.646404 0.000000
vt 0.646404 0.002466
vt 0.653243 0.000000
vt 0.653243 0.002466
vt 0.660082 0.000000
vt 0.660082 0.002466
vt 0.640522 0.598858
vt 0.669134 0.598858
vt 0.671066 0.604147
vt 0.638590 0.604147
vt 0.675975 0.361161
vt 0.633681 0.361161
vt 0.631631 0.355873
vt 0.678026 0.355873
vt 0.673696 0.479927
vt 0.675706 0.479990
vt 0.635960 0.479927
vt 0.633950 0.479990
vt 0.870998 0.471329
vt 0.869158 0.466095
vt 0.901658 0.466095
vt 0.899817 0.471329
vt 0.906450 0.708830
vt 0.908590 0.712308
vt 0.862226 0.712308
vt 0.864366 0.708830
vt 0.904275 0.590217
vt 0.906285 0.590154
vt 0.864531 0.590154
vt 0.866541 0.590217
vt 0.234287 0.743704
vt 0.234287 0.713241
vt 0.236599 0.713132
vt 0.236599 0.743814
vt 0.231976 0.758159
vt 0.231976 0.713132
vt 0.234287 0.713243
vt 0.234287 0.758047
vt 0.270448 0.832898
vt 0.270279 0.714114
vt 0.272599 0.714109
vt 0.272765 0.832829
vt 0.270279 0.476043
vt 0.270448 0.357259
vt 0.272765 0.357328
vt 0.272599 0.476048
vt 0.270448 0.595147
vt 0.272765 0.595079
vt 0.270448 0.595010
vt 0.272765 0.595079
vn 0.0000 0.5145 0.8575
vn 0.0000 -1.0000 0.0000
vn 0.9542 0.2992 0.0000
vn 0.0000 0.5145 -0.8575
vn 0.0000 0.2873 -0.9578
vn 0.9566 0.2915 0.0000
vn 0.0000 0.2873 0.9578
vn 0.9332 0.3592 0.0000
vn 0.0000 0.7935 -0.6086
vn 0.0000 0.7935 0.6086
vn 0.0000 1.0000 0.0000
vn 0.0000 0.9268 0.3756
vn 0.0000 0.9268 -0.3756
vn 0.9304 0.3664 0.0000
vn 0.0022 -0.5142 -0.8577
vn 0.0007 1.0000 0.0041
vn -0.9566 -0.2907 0.0189
vn 0.0022 -0.5142 0.8577
vn 0.0017 -0.3005 0.9538
vn -0.9533 -0.3019 0.0110
vn 0.0017 -0.3005 -0.9538
vn -0.9415 -0.3359 -0.0254
vn 0.0016 -0.7933 0.6089
vn 0.0016 -0.7933 -0.6089
vn 0.0007 -1.0000 0.0063
vn 0.0010 -0.9262 -0.3771
vn 0.0010 -0.9262 0.3771
vn -0.9559 -0.2920 -0.0321
vn -0.9559 -0.2920 0.0321
vn -0.9419 -0.3360 0.0000
vn 0.0007 -1.0000 -0.0063
vn 0.0008 -1.0000 0.0000
vn -0.9415 -0.3359 0.0254
vn -0.9332 -0.3593 -0.0000
vn -0.9533 -0.3019 -0.0110
vn -0.9510 -0.3092 0.0002
vn -0.9510 -0.3092 -0.0002
vn -0.9566 -0.2907 -0.0189
vn -0.9542 -0.2992 -0.0000
vn 0.0007 1.0000 -0.0041
vn 0.0009 1.0000 -0.0001
vn 0.0009 1.0000 0.0000
vn 0.0009 1.0000 0.0001
vn -1.0000 0.0000 0.0000
vn 0.9922 0.1250 0.0000
vn 0.9926 0.1216 0.0000
vn 0.9516 0.2982 -0.0742
vn 0.9516 0.2982 0.0742
vn 0.9530 0.2939 0.0731
vn 0.9530 0.2939 -0.0731
vn -0.9922 -0.1246 0.0000
vn -0.7986 -0.6019 0.0000
vn -0.9489 -0.2965 -0.1083
vn -0.9489 -0.2965 0.1083
vn -0.9530 -0.2938 -0.0740
vn -0.9530 -0.2938 0.0740
vn 0.0258 -0.9997 0.0000
vn -0.0260 0.9997 0.0000
vn 0.0246 -0.0524 0.9983
vn 0.0246 -0.0524 -0.9983
vn -0.0181 -0.1266 0.9918
vn -0.0181 -0.1266 -0.9918
usemtl Брезент_БМ1
s off
f 11/1/1 3/2/1 7/3/1 10/4/1
f 24/5/2 29/6/2 4/7/2 8/8/2
f 36/9/3 28/10/3 3/11/3 11/12/3
f 12/13/4 5/14/4 1/15/4 9/16/4
f 6/17/5 12/13/5 9/16/5 2/18/5
f 29/19/6 36/9/6 11/12/6 4/20/6
f 4/21/7 11/1/7 10/4/7 8/22/7
f 25/23/8 1/24/8 15/25/8 37/26/8
f 1/15/9 5/14/9 16/27/9 15/28/9
f 7/3/10 3/2/10 13/29/10 14/30/10
f 44/31/11 45/32/11 18/33/11 17/34/11
f 14/30/12 13/29/12 17/35/12 18/36/12
f 15/28/13 16/27/13 20/37/13 19/38/13
f 37/26/14 15/25/14 19/39/14 41/40/14
f 13/41/14 40/42/14 44/43/14 17/44/14
f 40/42/14 39/45/14 43/46/14 44/43/14
f 39/45/14 38/47/14 42/48/14 43/46/14
f 38/47/14 37/26/14 41/40/14 42/48/14
f 19/49/11 20/50/11 48/51/11 41/52/11
f 41/52/11 48/51/11 47/53/11 42/54/11
f 42/54/11 47/53/11 46/55/11 43/56/11
f 43/56/11 46/55/11 45/32/11 44/31/11
f 3/11/8 28/10/8 40/42/8 13/41/8
f 28/10/8 50/57/8 39/45/8 40/42/8
f 50/57/8 49/58/8 38/47/8 39/45/8
f 49/58/8 25/23/8 37/26/8 38/47/8
f 2/59/6 9/60/6 33/61/6 32/62/6
f 32/62/6 33/61/6 53/63/6 52/64/6
f 51/65/6 35/66/6 36/9/6 29/19/6
f 9/60/3 1/24/3 25/23/3 33/61/3
f 33/61/3 25/23/3 49/58/3 53/63/3
f 35/66/3 50/57/3 28/10/3 36/9/3
f 6/67/2 2/68/2 32/69/2 21/70/2
f 21/70/2 32/69/2 52/71/2 22/72/2
f 22/72/2 52/71/2 51/73/2 23/74/2
f 23/74/2 51/73/2 29/6/2 24/5/2
f 65/75/15 64/76/15 61/77/15 57/78/15
f 78/79/16 62/80/16 58/81/16 83/82/16
f 90/83/17 65/84/17 57/85/17 82/86/17
f 66/87/18 63/88/18 55/89/18 59/90/18
f 60/91/19 56/92/19 63/88/19 66/87/19
f 83/93/20 58/94/20 65/84/20 90/83/20
f 58/95/21 62/96/21 64/76/21 65/75/21
f 79/97/22 91/98/22 69/99/22 55/100/22
f 55/89/23 69/101/23 70/102/23 59/90/23
f 61/77/24 68/103/24 67/104/24 57/78/24
f 98/105/25 71/106/25 72/107/25 99/108/25
f 68/103/26 72/109/26 71/110/26 67/104/26
f 69/101/27 73/111/27 74/112/27 70/102/27
f 91/98/28 95/113/28 73/114/28 69/99/28
f 67/115/29 71/116/29 98/117/29 94/118/29
f 94/118/30 98/117/30 97/119/30 93/120/30
f 93/120/30 97/119/30 96/121/30 92/122/30
f 92/122/30 96/121/30 95/113/30 91/98/30
f 73/123/31 95/124/31 102/125/31 74/126/31
f 95/124/32 96/127/32 101/128/32 102/125/32
f 96/127/32 97/129/32 100/130/32 101/128/32
f 97/129/32 98/105/32 99/108/32 100/130/32
f 57/85/33 67/115/33 94/118/33 82/86/33
f 82/86/34 94/118/34 93/120/34 104/131/34
f 104/131/34 93/120/34 92/122/34 103/132/34
f 103/132/34 92/122/34 91/98/34 79/97/34
f 56/133/35 86/134/35 87/135/35 63/136/35
f 86/134/36 106/137/36 107/138/36 87/135/36
f 105/139/37 83/93/37 90/83/37 89/140/37
f 63/136/38 87/135/38 79/97/38 55/100/38
f 87/135/39 107/138/39 103/132/39 79/97/39
f 89/140/39 90/83/39 82/86/39 104/131/39
f 60/141/40 75/142/40 86/143/40 56/144/40
f 75/142/41 76/145/41 106/146/41 86/143/41
f 76/145/42 77/147/42 105/148/42 106/146/42
f 77/147/43 78/79/43 83/82/43 105/148/43
f 24/149/44 8/150/44 62/151/44 78/152/44
f 10/153/44 7/154/44 61/155/44 64/156/44
f 12/157/44 6/158/44 60/159/44 66/160/44
f 8/150/44 10/153/44 64/156/44 62/151/44
f 5/161/44 12/157/44 66/160/44 59/162/44
f 7/154/44 14/163/44 68/164/44 61/155/44
f 16/165/44 5/161/44 59/162/44 70/166/44
f 48/167/44 20/168/44 74/169/44 102/170/44
f 14/163/44 18/171/44 72/172/44 68/164/44
f 20/168/44 16/165/44 70/166/44 74/169/44
f 6/158/44 21/173/44 75/174/44 60/159/44
f 21/173/44 22/175/44 76/176/44 75/174/44
f 22/175/44 23/177/44 77/178/44 76/176/44
f 23/177/44 24/149/44 78/152/44 77/178/44
f 18/171/44 45/179/44 99/180/44 72/172/44
f 45/179/44 46/181/44 100/182/44 99/180/44
f 46/181/44 47/183/44 101/184/44 100/182/44
f 47/183/44 48/167/44 102/170/44 101/184/44
usemtl Брезент_БМ2
f 27/185/45 26/186/45 49/187/45 50/188/45
f 31/189/46 30/190/46 51/191/46 52/192/46
f 34/193/47 31/189/47 52/192/47 53/194/47
f 30/190/48 54/195/48 35/196/48 51/191/48
f 26/186/49 34/193/49 53/194/49 49/187/49
f 54/195/50 27/185/50 50/188/50 35/196/50
f 81/197/51 104/198/51 103/199/51 80/200/51
f 85/201/52 106/202/52 105/203/52 84/204/52
f 88/205/53 107/206/53 106/202/53 85/201/53
f 84/204/54 105/203/54 89/207/54 108/208/54
f 80/200/55 103/199/55 107/206/55 88/205/55
f 108/208/56 89/207/56 104/198/56 81/197/56
f 26/209/57 27/210/57 81/211/57 80/212/57
f 30/213/58 31/214/58 85/215/58 84/216/58
f 31/217/59 34/218/59 88/219/59 85/220/59
f 54/221/60 30/222/60 84/223/60 108/224/60
f 34/218/61 26/225/61 80/226/61 88/219/61
f 27/227/62 54/221/62 108/224/62 81/228/62
