# Blender v2.83.12 OBJ File: 'ШП1.blend'
# www.blender.org
mtllib ШП1.mtl
o Cube
v 3.000000 2.000000 -2.100000
v 3.000000 0.000000 -3.000000
v 3.000000 2.000000 2.100000
v 3.000000 0.000000 3.000000
v -3.000000 2.000000 -2.100000
v -3.000000 0.000000 -3.000000
v -3.000000 2.000000 2.100000
v -3.000000 0.000000 3.000000
v 3.000000 1.000000 -2.700000
v -3.000000 1.000000 2.700000
v 3.000000 1.000000 2.700000
v -3.000000 1.000000 -2.700000
v 3.000000 2.483252 1.470000
v -3.000000 2.483252 1.470000
v 3.000000 2.483252 -1.470000
v -3.000000 2.483252 -1.470000
v 3.000000 2.900296 0.441000
v -3.000000 2.900296 0.441000
v 3.000000 2.900296 -0.441000
v -3.000000 2.900296 -0.441000
v 3.000000 1.994020 -2.042747
v 3.000000 0.013420 -2.955513
v 3.000000 1.994020 2.042747
v 3.000000 0.013420 2.955513
v -3.000000 1.994020 -2.042747
v -3.000000 0.013420 -2.955513
v -3.000000 1.994020 2.042747
v -3.000000 0.013420 2.955513
v 3.000000 0.997040 -2.640661
v -3.000000 0.997040 2.640661
v 3.000000 0.997040 2.640661
v -3.000000 0.997040 -2.640661
v 3.000000 2.472813 1.418822
v -3.000000 2.472813 1.418822
v 3.000000 2.472813 -1.418822
v -3.000000 2.472813 -1.418822
v 3.000000 2.882212 0.415377
v -3.000000 2.882212 0.415377
v 3.000000 2.882212 -0.415377
v -3.000000 2.882212 -0.415377
vt 0.000000 0.615382
vt 0.000000 0.487199
vt 0.317763 0.487199
vt 0.317763 0.615382
vt 0.953289 0.996201
vt 0.635526 0.996201
vt 0.635526 0.739779
vt 0.953289 0.739779
vt 0.317763 0.615382
vt 0.317763 0.487199
vt 0.635526 0.487199
vt 0.635526 0.615382
vt 0.317763 0.743578
vt 0.635526 0.743578
vt 0.000000 0.743578
vt 0.317763 0.743578
vt 0.317763 0.425271
vt 0.635526 0.425271
vt 0.000000 0.425271
vt 0.317763 0.425271
vt 1.000000 0.000000
vt 1.000000 0.256422
vt 0.953289 0.256422
vt 0.953289 0.000000
vt 0.000000 0.371849
vt 0.317763 0.371849
vt 0.317763 0.371849
vt 0.635526 0.371849
vt 0.953289 0.613653
vt 0.635526 0.613653
vt 0.635526 0.485802
vt 0.953289 0.485802
vt 0.313051 1.000000
vt 0.000000 1.000000
vt 0.000000 0.743578
vt 0.313051 0.743578
vt 0.953289 0.241804
vt 0.635526 0.241804
vt 0.635526 0.113952
vt 0.953289 0.113952
vt 0.953289 0.367930
vt 0.635526 0.367930
vt 0.953289 0.739779
vt 0.635526 0.739779
vt 0.635526 0.052537
vt 0.953289 0.052537
vt 0.635526 0.424386
vt 0.953289 0.424386
vt 0.953289 0.256422
vt 0.997286 0.256422
vt 0.997286 0.512843
vt 0.953289 0.512843
vt 0.635526 0.371849
vt 0.953289 0.371849
vt 0.635526 0.000000
vt 0.953289 0.000000
vt 0.635526 0.371849
vt 0.317763 0.371849
vt 0.320119 0.370129
vt 0.633170 0.370129
vt 0.000000 0.371849
vt 0.015888 0.243639
vt 0.019031 0.244018
vt 0.002356 0.370129
vt 0.333651 0.243639
vt 0.365427 0.115428
vt 0.368459 0.116195
vt 0.336794 0.244018
vt 0.301875 0.243639
vt 0.317763 0.371849
vt 0.315407 0.370129
vt 0.298732 0.244018
vt 0.619638 0.243639
vt 0.616495 0.244018
vt 0.047664 0.115428
vt 0.050696 0.116195
vt 0.270098 0.115428
vt 0.267066 0.116194
vt 0.587861 0.115428
vt 0.584829 0.116194
vt 0.398792 0.053470
vt 0.401503 0.054808
vt 0.554496 0.053470
vt 0.551786 0.054808
vt 0.081029 0.053470
vt 0.083740 0.054808
vt 0.236733 0.053470
vt 0.234023 0.054808
vt 0.135526 0.000000
vt 0.182237 0.000000
vt 0.180880 0.002319
vt 0.136883 0.002319
vt 0.453289 0.000000
vt 0.500000 0.000000
vt 0.498643 0.002319
vt 0.454646 0.002319
vn 0.0000 0.5145 0.8575
vn 0.0000 -1.0000 0.0000
vn 0.0000 0.5145 -0.8575
vn 0.0000 0.2873 -0.9578
vn 0.0000 0.2873 0.9578
vn 0.0000 0.7935 -0.6086
vn 0.0000 0.7935 0.6086
vn 0.0000 1.0000 0.0000
vn 0.0000 0.9268 0.3756
vn 0.0000 0.9268 -0.3756
vn 0.0000 -0.5143 -0.8576
vn 0.0000 -0.5143 0.8576
vn 0.0000 -0.3049 0.9524
vn 0.0000 -0.3049 -0.9524
vn 0.0000 -0.7933 0.6088
vn 0.0000 -0.7933 -0.6088
vn 0.0000 -0.9259 -0.3778
vn 0.0000 -0.9259 0.3778
vn -1.0000 -0.0000 0.0000
vn 1.0000 0.0000 0.0000
usemtl Брезент_БМ1
s off
f 11/1/1 3/2/1 7/3/1 10/4/1
f 6/5/2 2/6/2 4/7/2 8/8/2
f 12/9/3 5/10/3 1/11/3 9/12/3
f 6/13/4 12/9/4 9/12/4 2/14/4
f 4/15/5 11/1/5 10/4/5 8/16/5
f 1/11/6 5/10/6 16/17/6 15/18/6
f 7/3/7 3/2/7 13/19/7 14/20/7
f 19/21/8 20/22/8 18/23/8 17/24/8
f 14/20/9 13/19/9 17/25/9 18/26/9
f 15/18/10 16/17/10 20/27/10 19/28/10
f 31/29/11 30/30/11 27/31/11 23/32/11
f 26/33/8 28/34/8 24/35/8 22/36/8
f 32/37/12 29/38/12 21/39/12 25/40/12
f 26/41/13 22/42/13 29/38/13 32/37/13
f 24/43/14 28/44/14 30/30/14 31/29/14
f 21/39/15 35/45/15 36/46/15 25/40/15
f 27/31/16 34/47/16 33/48/16 23/32/16
f 39/49/2 37/50/2 38/51/2 40/52/2
f 34/47/17 38/53/17 37/54/17 33/48/17
f 35/45/18 39/55/18 40/56/18 36/46/18
f 6/57/19 8/58/19 28/59/19 26/60/19
f 2/61/20 9/62/20 29/63/20 22/64/20
f 10/65/19 7/66/19 27/67/19 30/68/19
f 11/69/20 4/70/20 24/71/20 31/72/20
f 12/73/19 6/57/19 26/60/19 32/74/19
f 4/70/20 2/61/20 22/64/20 24/71/20
f 9/62/20 1/75/20 21/76/20 29/63/20
f 8/58/19 10/65/19 30/68/19 28/59/19
f 3/77/20 11/69/20 31/72/20 23/78/20
f 5/79/19 12/73/19 32/74/19 25/80/19
f 7/66/19 14/81/19 34/82/19 27/67/19
f 16/83/19 5/79/19 25/80/19 36/84/19
f 1/75/20 15/85/20 35/86/20 21/76/20
f 13/87/20 3/77/20 23/78/20 33/88/20
f 19/89/20 17/90/20 37/91/20 39/92/20
f 18/93/19 20/94/19 40/95/19 38/96/19
f 14/81/19 18/93/19 38/96/19 34/82/19
f 20/94/19 16/83/19 36/84/19 40/95/19
f 17/90/20 13/87/20 33/88/20 37/91/20
f 15/85/20 19/89/20 39/92/20 35/86/20
